<svg xmlns="http://www.w3.org/2000/svg" viewBox="0 0 31.57 22.27"><defs><style>.cls-1{fill:#231815;}</style></defs><g id="レイヤー_2" data-name="レイヤー 2"><g id="Layer_1" data-name="Layer 1"><path class="cls-1" d="M21.74,15.29c-1.38-.21-3.33,1-3.33,1,.31-3.57-2.62-6.34-2.62-6.34s-2.94,2.77-2.62,6.34c0,0-2-1.22-3.33-1a4.87,4.87,0,0,0,2.57,4.9,4.26,4.26,0,0,1,3.38-2.93,4.24,4.24,0,0,1,3.37,2.93A4.87,4.87,0,0,0,21.74,15.29Z"/><path class="cls-1" d="M15.79,18.59a2.1,2.1,0,0,0-2.25,2.08c0,1,1.48,1.6,2.25,1.6S18,21.68,18,20.67A2.1,2.1,0,0,0,15.79,18.59Z"/><path class="cls-1" d="M7.67,21.07h0c1.56.11,3,.93,4.43.45-2.59-.85-2.78-3.22-4.49-4.95S2.28,15.77.8,13.48c-2.68,7.08,2.07,8.09,4.38,7.93a5,5,0,0,1-2.9-4.95C3.13,19.66,6.19,20.77,7.67,21.07Z"/><path class="cls-1" d="M12.11,14.7c.37-2-1-8-8.51-6.34.74,1.55.23,4.83,2.86,6,1.45.63,2.67-.26,4.09-.17C9.8,12,8,11.29,5.62,10,9.28,10.39,11.48,12.2,12.11,14.7Z"/><path class="cls-1" d="M25.12,14.33c2.62-1.14,2.11-4.42,2.85-6-7.5-1.65-8.88,4.37-8.51,6.34C20.1,12.2,22.29,10.39,26,10c-2.34,1.33-4.18,2-4.93,4.2C22.44,14.07,23.66,15,25.12,14.33Z"/><path class="cls-1" d="M15.79,8.58a4.4,4.4,0,0,1,2.72,3.14,6.16,6.16,0,0,1,5-5c-1.53-2.07-4.86-2.07-5.76.38C18.78,4.16,17.6,0,15.79,0s-3,4.16-1.94,7.14C13,4.69,9.63,4.69,8.09,6.76a6.15,6.15,0,0,1,5,5A4.42,4.42,0,0,1,15.79,8.58Z"/><path class="cls-1" d="M30.78,13.48c-1.49,2.29-5.11,1.36-6.83,3.09s-1.9,4.1-4.49,4.95c1.43.48,2.87-.34,4.44-.45h0c1.48-.3,4.55-1.41,5.39-4.61a5,5,0,0,1-2.9,4.95C28.7,21.57,33.45,20.56,30.78,13.48Z"/></g></g></svg>