<svg xmlns="http://www.w3.org/2000/svg" viewBox="0 0 100 100"><defs><style>.cls-1{fill:#fff;}</style></defs><g id="レイヤー_2" data-name="レイヤー 2"><g id="レイヤー_1-2" data-name="レイヤー 1"><path class="cls-1" d="M89.33,19.13h3.09a2,2,0,0,0,0-3.91H85a2,2,0,0,0-2,2v7.41a2,2,0,1,0,3.91,0V22.45A46.1,46.1,0,1,1,50,3.9a47.77,47.77,0,0,1,5.62.34A1.95,1.95,0,1,0,56.1.37,50,50,0,0,0,0,50,50,50,0,0,0,85.36,85.36a50,50,0,0,0,4-66.23Z"/><path class="cls-1" d="M21.17,29.48a2,2,0,0,0-2.69.6A37.26,37.26,0,1,0,30.14,18.44a2,2,0,1,0,2.09,3.3A33.38,33.38,0,1,1,26.4,73.6a33.58,33.58,0,0,1-4.62-41.43A2,2,0,0,0,21.17,29.48Z"/><path class="cls-1" d="M75.37,52h2.41a2,2,0,0,0,0-3.9H75.37a2,2,0,0,0,0,3.9Z"/><path class="cls-1" d="M20.27,50a2,2,0,0,0,1.95,2h2.41a2,2,0,1,0,0-3.9H22.22A2,2,0,0,0,20.27,50Z"/><path class="cls-1" d="M52,24.63V22.22a2,2,0,1,0-3.9,0v2.41a1.95,1.95,0,1,0,3.9,0Z"/><path class="cls-1" d="M48,75.37v2.41a1.95,1.95,0,0,0,3.9,0V75.37a2,2,0,0,0-3.9,0Z"/><path class="cls-1" d="M40.22,37.46a2,2,0,0,0-2.76,2.76l6.61,6.61a6.72,6.72,0,1,0,11.86,0L69.28,33.48a2,2,0,1,0-2.76-2.76L53.17,44.07a6.76,6.76,0,0,0-6.34,0ZM52.82,50A2.82,2.82,0,1,1,50,47.18,2.82,2.82,0,0,1,52.82,50Z"/><path class="cls-1" d="M26.4,26.4A2,2,0,1,0,25,27,2,2,0,0,0,26.4,26.4Z"/><path class="cls-1" d="M63.52,5.83a2,2,0,0,0,1.38-.57,2,2,0,0,0,0-2.76,2,2,0,0,0-2.76,2.76A2,2,0,0,0,63.52,5.83Z"/></g></g></svg>