<svg xmlns="http://www.w3.org/2000/svg" viewBox="0 0 100 100"><defs><style>.cls-1{fill:#fff;}</style></defs><g id="レイヤー_2" data-name="レイヤー 2"><g id="レイヤー_1-2" data-name="レイヤー 1"><path class="cls-1" d="M100,41.8c0-3.75-1.47-9.88-3.58-14.91-2-4.78-5.39-10.48-10.09-10.48s-8.08,5.7-10.09,10.48c-2.11,5-3.58,11.16-3.58,14.91a13.59,13.59,0,0,0,.6,4,7.81,7.81,0,0,0-.6,15.26V72.65a29.3,29.3,0,0,0-2.73,2.27c-1.3-.36-2.58-.74-3.82-1.14A77.31,77.31,0,0,1,44.92,63.4V50.64A13.69,13.69,0,0,0,56.64,37.11c0-3.75-1.47-9.88-3.58-14.9-2-4.79-5.39-10.49-10.09-10.49-2.55,0-4.94,1.64-7.14,4.9a13.45,13.45,0,0,0-2.65-2.4,5,5,0,0,0,0-.55,13.67,13.67,0,0,0-27.34,0c0,.19,0,.37,0,.55a13.63,13.63,0,0,0,7.79,24.84h3.91V55.82A27.92,27.92,0,0,0,.31,67.7a2,2,0,0,0-.31,1v29.3a2,2,0,0,0,2,2H69.14a2,2,0,0,0,0-3.91H52.59A64.32,64.32,0,0,0,69.86,80.71a27.17,27.17,0,0,1,5.84-5.42h0a31.17,31.17,0,0,1,20.38-4.84V96.09H86.72a2,2,0,0,0,0,3.91H98.05a2,2,0,0,0,2-2V68.75a1.94,1.94,0,0,0-1.62-1.92,34.06,34.06,0,0,0-10.1-.2V55.33A13.69,13.69,0,0,0,100,41.8ZM79.84,28.41c2.51-6,5-8.1,6.49-8.1s4,2.13,6.48,8.1c2.13,5.07,3.28,10.68,3.28,13.39a9.77,9.77,0,0,1-19.53,0C76.56,39.09,77.71,33.48,79.84,28.41ZM82.3,54.86a13.33,13.33,0,0,0,2.08.47v12a34.64,34.64,0,0,0-7.82,2.89V61.08A7.82,7.82,0,0,0,82.3,54.86ZM70.7,53.52a3.92,3.92,0,0,1,3.91-3.91,3.15,3.15,0,0,1,.53,0A13.76,13.76,0,0,0,78.48,53a4.55,4.55,0,0,1,0,.53,3.91,3.91,0,0,1-7.82,0ZM43,15.63c1.49,0,4,2.12,6.48,8.09,2.13,5.07,3.28,10.68,3.28,13.39a9.77,9.77,0,1,1-19.53,0c0-.16,0-.33,0-.51a13.73,13.73,0,0,0,5.84-11.21,13.53,13.53,0,0,0-1-5C39.78,17.39,41.57,15.63,43,15.63ZM3.91,25.39a9.75,9.75,0,0,1,5-8.47c1.46-.82.84-2.33.84-3.25a9.77,9.77,0,0,1,19.53,0c0,.93-.62,2.43.84,3.25a9.73,9.73,0,0,1-4.75,18.24H13.67A9.78,9.78,0,0,1,3.91,25.39ZM25.39,39.06a13.75,13.75,0,0,0,4-.59A13.69,13.69,0,0,0,41,50.64v9.81a27.29,27.29,0,0,0-9.76-4.63,28.5,28.5,0,0,0-9.78-.66V39.06Zm-21.48,57V69.33a24.37,24.37,0,0,1,16-10,25.1,25.1,0,0,1,10.41.29,23.24,23.24,0,0,1,9,4.45A74.93,74.93,0,0,0,53,72.74a38.21,38.21,0,0,0-14.63,3.55c-5.12,2.57-7.94,6.13-7.94,10,0,3.5,2.16,7,5.86,9.76Zm40.18-.15c-5.76-2.27-9.71-6.16-9.71-9.61,0-2.32,2.1-4.7,5.78-6.54a36,36,0,0,1,15.7-3.23,35.26,35.26,0,0,1,11.07,1.56C55.23,92.5,45.42,95.14,44.09,95.94Z"/><circle class="cls-1" cx="77.93" cy="98.05" r="1.95"/></g></g></svg>