<svg xmlns="http://www.w3.org/2000/svg" viewBox="0 0 88.59 88.59"><defs><style>.cls-1{fill:none;}.cls-2{fill:#3296d4;}</style></defs><g id="レイヤー_2" data-name="レイヤー 2"><g id="レイヤー_1-2" data-name="レイヤー 1"><rect class="cls-1" width="88.59" height="88.59"/><path class="cls-2" d="M32.4,70.34c24.19,0,37.42-20,37.42-37.42,0-.57,0-1.13,0-1.7a26.76,26.76,0,0,0,6.57-6.81,26.3,26.3,0,0,1-7.56,2.08,13.24,13.24,0,0,0,5.79-7.28,26.39,26.39,0,0,1-8.35,3.19,13.17,13.17,0,0,0-22.76,9,13.52,13.52,0,0,0,.34,3,37.34,37.34,0,0,1-27.1-13.74,13.16,13.16,0,0,0,4.07,17.55,13,13,0,0,1-6-1.64v.17A13.15,13.15,0,0,0,25.37,49.63a13.26,13.26,0,0,1-3.47.46,12.54,12.54,0,0,1-2.47-.24A13.17,13.17,0,0,0,31.72,59a26.41,26.41,0,0,1-16.34,5.63,27.16,27.16,0,0,1-3.14-.18,37.27,37.27,0,0,0,20.16,5.9"/></g></g></svg>