<svg xmlns="http://www.w3.org/2000/svg" viewBox="0 0 88.59 88.59"><defs><style>.cls-1{fill:none;}.cls-2{fill:#2bac38;}</style></defs><g id="レイヤー_2" data-name="レイヤー 2"><g id="レイヤー_1-2" data-name="レイヤー 1"><rect class="cls-1" width="88.59" height="88.59"/><path class="cls-2" d="M77,39.68c0-14.63-14.67-26.54-32.7-26.54S11.6,25.05,11.6,39.68c0,13.11,11.63,24.09,27.34,26.17,1.07.23,2.52.7,2.88,1.61a6.73,6.73,0,0,1,.11,3s-.38,2.31-.47,2.8c-.14.82-.65,3.23,2.83,1.76S63.12,63.89,70,56h0C74.72,50.8,77,45.53,77,39.68ZM32.76,47.49a.63.63,0,0,1-.64.63H23a.69.69,0,0,1-.44-.17h0a.64.64,0,0,1-.17-.44h0V33.24a.63.63,0,0,1,.63-.63h2.3a.63.63,0,0,1,.63.63V44.56h6.23a.63.63,0,0,1,.64.63Zm5.53,0a.64.64,0,0,1-.64.63H35.36a.64.64,0,0,1-.64-.63V33.24a.64.64,0,0,1,.64-.63h2.29a.64.64,0,0,1,.64.63Zm15.78,0a.63.63,0,0,1-.63.63h-2.3l-.16,0h0l0,0h0l0,0h-.05l0,0h0a.61.61,0,0,1-.16-.16L44.09,39v8.46a.64.64,0,0,1-.64.63H41.16a.63.63,0,0,1-.64-.63V33.24a.63.63,0,0,1,.64-.63h2.52l0,0h.05l0,0,0,0h0l0,0h0l0,0h0l0,.07,6.53,8.81V33.24a.63.63,0,0,1,.63-.63h2.3a.63.63,0,0,1,.63.63Zm12.67-12a.64.64,0,0,1-.64.63H59.87v2.41H66.1a.64.64,0,0,1,.64.64v2.29a.64.64,0,0,1-.64.64H59.87v2.41H66.1a.64.64,0,0,1,.64.63v2.3a.64.64,0,0,1-.64.63H56.94a.63.63,0,0,1-.44-.18h0a.65.65,0,0,1-.18-.44h0V33.24h0a.65.65,0,0,1,.18-.44h0a.59.59,0,0,1,.44-.18H66.1a.64.64,0,0,1,.64.63Z"/></g></g></svg>