<svg xmlns="http://www.w3.org/2000/svg" viewBox="0 0 98.2 80.31"><defs><style>.cls-1{fill:#fff;}</style></defs><g id="レイヤー_2" data-name="レイヤー 2"><g id="レイヤー_1-2" data-name="レイヤー 1"><path class="cls-1" d="M49.1,0A16.1,16.1,0,1,0,65.19,16.09,16.11,16.11,0,0,0,49.1,0Zm0,28.13a12,12,0,1,1,12-12A12.05,12.05,0,0,1,49.1,28.13Z"/><path class="cls-1" d="M83.48,14.5a9.85,9.85,0,1,0,9.84,9.84A9.86,9.86,0,0,0,83.48,14.5Zm0,15.63a5.79,5.79,0,1,1,5.78-5.79A5.8,5.8,0,0,1,83.48,30.13Z"/><path class="cls-1" d="M98.2,47.91A12.33,12.33,0,0,0,85.84,35.63H81.31a12.42,12.42,0,0,0-11.24,7.16L69.51,44l-.92-1a22.77,22.77,0,0,0-16.76-7.39H46.37A22.77,22.77,0,0,0,29.61,43l-.92,1-.56-1.22a12.42,12.42,0,0,0-11.24-7.16H12.36A12.34,12.34,0,0,0,0,47.91V69.24a4.83,4.83,0,0,0,4.84,4.82H23.59l.07.82a6,6,0,0,0,5.91,5.43H68.63a6,6,0,0,0,5.91-5.43l.07-.82H93.15a5,5,0,0,0,5-5Zm-73,2.17-.06.16c-1.6,4.14-1.58,6.85-1.53,14.1,0,1.41,0,3,0,4.76V70H4.06V47.91a8.26,8.26,0,0,1,8.3-8.22h4.53a8.27,8.27,0,0,1,8.31,8.22ZM70.51,74.37a1.88,1.88,0,0,1-1.88,1.88H29.57a1.88,1.88,0,0,1-1.88-1.88v-16A18.69,18.69,0,0,1,46.37,39.69h5.46A18.69,18.69,0,0,1,70.51,58.36ZM94,69.49c-.25.47-.28.52-5.8.52H74.57v-.9c0-1.79,0-3.36,0-4.77,0-7.25.06-10-1.53-14.09L73,50.08V47.91a8.27,8.27,0,0,1,8.31-8.22h4.53a8.26,8.26,0,0,1,8.3,8.22V68.77l.15.24Z"/><path class="cls-1" d="M14.73,14.5a9.85,9.85,0,1,0,9.84,9.84A9.86,9.86,0,0,0,14.73,14.5Zm0,15.63a5.79,5.79,0,1,1,5.78-5.79A5.8,5.8,0,0,1,14.73,30.13Z"/></g></g></svg>