<svg xmlns="http://www.w3.org/2000/svg" viewBox="0 0 405.33 173.92"><defs><style>.cls-1{isolation:isolate;}.cls-2{fill:#e0a73e;}.cls-12,.cls-13,.cls-3{fill:#231815;}.cls-10,.cls-11,.cls-3,.cls-4,.cls-5,.cls-6,.cls-7,.cls-8,.cls-9{fill-rule:evenodd;}.cls-4{fill:#4d4d4d;}.cls-5{fill:#989898;}.cls-6{fill:#ccc;}.cls-7{fill:gray;}.cls-8{fill:#fff;}.cls-11,.cls-9{fill:#b5b5b6;}.cls-10{fill:#727171;}.cls-11{mix-blend-mode:multiply;}.cls-13{stroke:#231815;stroke-miterlimit:10;stroke-width:0.3px;}</style></defs><g class="cls-1"><g id="レイヤー_2" data-name="レイヤー 2"><g id="レイヤー_2-2" data-name="レイヤー 2"><rect x="245" y="95.25" width="78.67" height="78.67"/><path class="cls-2" d="M308.71,118.59l-.76-.12a2.29,2.29,0,0,0,.23-.82c-.12-.43-.51-.68-1.17-.76-1.41-.08-3.26-.12-5.57-.12q-4.56,0-10.25.06h-2.87v.35a15.21,15.21,0,0,0,.11,1.82c0,.55-.05,1-.05,1.35a9.79,9.79,0,0,0,1.11-.06,22.47,22.47,0,0,0,7.68-1.93c1,0,2.1.64,3.39,1.93a12.07,12.07,0,0,0,4.93,2.75c-.75,1.06-1.27,3.31-1.59,6.74,0,5.2.34,8.54.88,10a18.74,18.74,0,0,0-4.33,2.4,6.35,6.35,0,0,1-3.58,1.53,18.16,18.16,0,0,0-8.85-2c-3.63,0-6.79.11-9.49.35-3.83.62-6.25,1.37-7.26,2.23-1.14,0-2.43-.79-3.87-2.23a12.86,12.86,0,0,0-4.16-3q1.29-2.11,1.64-7,0-6.45-1.23-9.55a19.63,19.63,0,0,0,4.16-2.23,8,8,0,0,1,4-1.64,20.92,20.92,0,0,0,8.26,1.87c0-.31,0-.62-.05-.93,0-.51.07-1.08.11-1.7v-1.06q-1.94.06-3.57.06-6.63-.06-13.42-.06c-1.25,0-1.87.32-1.87.94a1.41,1.41,0,0,0,.23.82,3.89,3.89,0,0,1-.76-.06c-.82-.11-1.23-.78-1.23-2s.6-1.91,1.7-2c-1.14-.2-1.7-.78-1.7-1.76,0-1.29.45-2,1.35-2a3.24,3.24,0,0,1,.64.06,2.2,2.2,0,0,0-.18.76q.24.82,1.65,1a48.26,48.26,0,0,0,5.09.18q5.81.12,10,.12h2a2.33,2.33,0,0,0-.12-.3c0-1.32-.43-2-1.29-2a1.67,1.67,0,0,0-1.29.59,4.1,4.1,0,0,1-.18-1.06c0-1.4,1.1-2.15,3.29-2.22s3.49,1,3.8,2.81q.36-2.7,3.81-2.7c2,0,3.21.78,3.52,2.35a2.19,2.19,0,0,1-.18,1,2,2,0,0,0-1.4-.58c-.75.15-1.19.88-1.35,2.16h1.17c4.22,0,7.89,0,11-.17q3.75-.12,6.09-.35a1.12,1.12,0,0,0,1.23-1.23,1.93,1.93,0,0,0-.41-.82,1.22,1.22,0,0,1,.65-.18c1,.16,1.52.86,1.64,2.11a2.07,2.07,0,0,1-1.76,2.11c1.25.2,1.87.82,1.87,1.87C310.17,117.69,309.68,118.44,308.71,118.59Z"/><path class="cls-3" d="M367.83,81.47c8.6-4,13.71-9.62,14.95-14.24,3-8.46-6.77-16.42-13.37-19.5l-.65-.3a11.49,11.49,0,0,0-5.63-5.87c-12.75-6.33-35.65-4.43-48.93-.71a43.08,43.08,0,0,0,38.32,62.73c.69,0,1.38,0,2.06,0-7-13.18-12-29.14-.78-30.28,6.22,0,11.24.53,14,8.22"/><path class="cls-4" d="M372.05,70.14s-2-6.07-22.17-4.82a30.6,30.6,0,0,1,9.1-2.56,26.09,26.09,0,0,1,9.3,1.38c.25.07,5.29,1.92,3.77,6"/><path class="cls-5" d="M371.74,73.09a25.52,25.52,0,0,0,5.32-8.29c2.35-5.54-10.28-11.44-10.28-11.44a16.68,16.68,0,0,1-4.49,2.52l3.23,1.71L358.15,57l5.48,2.22s8.91,2.24,9.52,4.73-1.41,9.19-1.41,9.19"/><path class="cls-6" d="M371.74,73.09a25.52,25.52,0,0,0,5.32-8.29c2.35-5.54-10.28-11.44-10.28-11.44a10.47,10.47,0,0,1-1,.74,33.52,33.52,0,0,1,8.74,5.21,48.18,48.18,0,0,0-6-2.56,26,26,0,0,1,7.1,6.22,24.93,24.93,0,0,1-3.82,10.12"/><path class="cls-7" d="M358.15,57a14.94,14.94,0,0,1-5.37,1.93,11.88,11.88,0,0,0-7.44,4.26A89,89,0,0,1,359,62.76h0l-.25.05s5.55.64,8.79,2.23,5.39,2.74,4.21,8a20.84,20.84,0,0,0,2.44-9.66,43,43,0,0,0-16-6.48"/><path class="cls-8" d="M333.65,50.93a10.24,10.24,0,0,1,9.22-2c5.4,1.49,7.27,3.75,14.52,3.76,3.35,0,5.26-.41,5.64-1.57.45-1.35-.74-3-2.66-4-9.44-4.68-28-3.61-43.53.21a36.2,36.2,0,0,0-3.08,10.08,71.31,71.31,0,0,1,12.89-3.9,84.47,84.47,0,0,0-13.31,9.84A36.65,36.65,0,0,0,316,76.59c6.57-6.8,14.55-12.93,23.76-16.15,0,0-10,6.07-19.56,23.83a36.74,36.74,0,0,0,8.52,8.54,46.49,46.49,0,0,1,5.41-17.12c-5.4,4.54-7.39,8-7.39,8,8.52-22.46,20.84-26.4,22.19-26.76a10.55,10.55,0,0,1-6.11-.54,11.1,11.1,0,0,0,3.14-.9,5.33,5.33,0,0,1-2.61-3.63c-2.67-1-6.95-2.19-9.65-.88"/><path class="cls-9" d="M313.76,57.41a71.31,71.31,0,0,1,12.89-3.9,70.43,70.43,0,0,0-12.46,1.59c-.17.76-.31,1.53-.43,2.31"/><path class="cls-9" d="M339.42,98.1a52.41,52.41,0,0,1-.24-6,47.42,47.42,0,0,0-2.58,5c.92.36,1.86.69,2.82,1M316,76.59c6.57-6.8,14.55-12.93,23.76-16.15,0,0-10,6.07-19.56,23.83A36.76,36.76,0,0,0,332.08,95a36.43,36.43,0,0,1,2.49-15.25c5.08-11.84,13.74-12.24,13.74-12.24A22.61,22.61,0,0,0,335,70.86s6-10.5,13.76-13.87c-.77.32-3.12,1.1-8.4,1.22-6.71.16-17,1.12-25.45,8.46,0,0,4.12-2.14,12.72-3.27,0,0-6.14.73-13.11,8.66A36.34,36.34,0,0,0,316,76.59Z"/><path class="cls-10" d="M333.25,95.61A34,34,0,0,1,336,79.79c5.08-11.84,17.36-12.74,17.36-12.74-10.28-1.31-16.49,2.43-16.49,2.43,2.74-5.54,12-12.6,12-12.6-15.26,6.34-22.19,26.76-22.19,26.76,4.2-7.66,8.56-9.71,8.56-9.71-6.5,7.18-6.58,18.88-6.58,18.88a36.89,36.89,0,0,0,4.58,2.8m6.17-14.83c-5,5.22-4.17,15.78-4.17,15.78A36.36,36.36,0,0,0,343,99C338.23,87.21,339.42,80.78,339.42,80.78Z"/><path class="cls-11" d="M369.45,47.75c-6.86-1.13-14.2-4.81-20.64-9.91a99.37,99.37,0,0,0-26.68,1.23L319,43.64s17.39,16,40.75,11.82C357.15,53,372.06,49,369.45,47.75Z"/><path class="cls-8" d="M357,52.7c-1.61,2.94-5.84,2.27-5.84,2.27-4.62-.65-4.54-4.11-4.54-4.11Z"/><path class="cls-3" d="M361.86,1.85C380.24,6,385.49,13.68,385.49,13.68c-12.2,8.71-16.73,33.75-16.73,33.75a65.34,65.34,0,0,1-30.64-7C342.91,16.2,339.56,1,339.56,1S345.91-1.76,361.86,1.85Z"/><path class="cls-10" d="M378.49,15.67a17.44,17.44,0,0,1,2.07-2.29,25.57,25.57,0,0,0-6.38-3.6c-.49,1-1,2.15-1.49,3.34C374.23,13.72,376.52,14.66,378.49,15.67Z"/><path class="cls-10" d="M371.54,16c-4.93,12.61-9.73,30.13-9.73,30.13l3.51.7c3.63-15,8.19-23.81,11.37-28.61C374.93,17.31,372.91,16.49,371.54,16Z"/><path class="cls-3" d="M385,44.9l2,3.81c-39.25,14-64.86-9.64-64.86-9.64s4.06-9.82,20.89-15.74C343,23.33,358.15,57,385,44.9Z"/><path d="M239.5,97.75v73.67H165.83V97.75H239.5m2.5-2.5H163.33v78.67H242V95.25Z"/><rect y="13.59" width="78.67" height="78.67"/><path class="cls-2" d="M15.9,27.43a5.74,5.74,0,0,0,1.4.47,22.24,22.24,0,0,1,3.11.82,24.66,24.66,0,0,1,4.27,1.76,18.15,18.15,0,0,1,2.47,1.35,2.16,2.16,0,0,0,1.4.58q.89,0,1.35-1.17A1.75,1.75,0,0,1,31,33a3.32,3.32,0,0,1-3.34,3.51,3,3,0,0,1-1.75-.64,4.36,4.36,0,0,1,.64,1.93q-.29,2.94-3.63,3.34A1.58,1.58,0,0,1,21.17,40c1,0,1.5-.43,1.58-1.29a2.73,2.73,0,0,0-.17-.88A15.14,15.14,0,0,0,20,33.12a21.9,21.9,0,0,0-3.64-4.28,1.57,1.57,0,0,1-.52-.88A2.15,2.15,0,0,1,15.9,27.43Z"/><path class="cls-2" d="M13.14,44.78a7.24,7.24,0,0,0,1.88.64,23.24,23.24,0,0,1,3.57,1A33.44,33.44,0,0,1,23,48.64a35.29,35.29,0,0,1,4.46,3.75,8,8,0,0,0-4.69,3.11C22,57,21,57.78,19.7,57.78a16.64,16.64,0,0,0-1.64-5A25.71,25.71,0,0,0,16,49.11a14.16,14.16,0,0,0-2.1-2.63A1.9,1.9,0,0,1,13.14,44.78Z"/><path class="cls-2" d="M27.26,70.32a15.82,15.82,0,0,1-2.58,5,3.1,3.1,0,0,0-.11.76,1.19,1.19,0,0,0,.82,1.23,8.33,8.33,0,0,0,1.17-.11c0,1.13-.82,1.75-2.34,1.87q-3.75,0-4.22-3.4a5.48,5.48,0,0,1,.35-1.87,4.86,4.86,0,0,1-3.17,1,3.49,3.49,0,0,1-2.92-3.22c0-1.13.41-1.74,1.23-1.82.11.82.54,1.23,1.28,1.23A3,3,0,0,0,17.6,71a10.59,10.59,0,0,0,3.63-2.87,18.46,18.46,0,0,0,3.16-3.7,14.28,14.28,0,0,0,2.29-3.63,27.39,27.39,0,0,0,1.64-3c.47.23.7,1.52.7,3.86A21.93,21.93,0,0,1,27.26,70.32Z"/><path class="cls-2" d="M44,69.44a16,16,0,0,1-3.1,5,3.73,3.73,0,0,0-.71,1.76c0,.74.59,1.15,1.64,1.23C41.72,78.47,41,79,39.51,79a3.8,3.8,0,0,1-3.4-3.8,3.48,3.48,0,0,1,.7-1.88,4.51,4.51,0,0,1-2.4.88,3.64,3.64,0,0,1-3.51-4c0-.94.58-1.45,1.64-1.53a2.77,2.77,0,0,0-.06.53c0,.7.45,1.06,1.23,1.06A3.9,3.9,0,0,0,34.94,70a17.68,17.68,0,0,0,3.69-1.64,26.83,26.83,0,0,0,3.69-2.23,7.16,7.16,0,0,0,2.17-1.64,2.4,2.4,0,0,1,.35,1.41A8.64,8.64,0,0,1,44,69.44Z"/><path class="cls-2" d="M44,61.53a3.93,3.93,0,0,1-2.17-.64,3.43,3.43,0,0,1,.59,1.82c-.24,1.91-1.49,2.93-3.75,3a1.47,1.47,0,0,1-1.58-1.4h.76c.62-.08.94-.55.94-1.41l-.12-.7a16.72,16.72,0,0,0-2.23-4,14.32,14.32,0,0,0-3-3.86,2,2,0,0,1-.23-1.12,12.78,12.78,0,0,0,1.76.41,25.7,25.7,0,0,1,4.57,1.41A18.25,18.25,0,0,1,43.08,57a2.09,2.09,0,0,0,1.35.76q.89,0,1.35-1.23c.82.12,1.23.73,1.23,1.82A3,3,0,0,1,44,61.53Z"/><path class="cls-2" d="M54.39,53.21c0-.66.51-1.11,1.41-1.34q3.63,0,3.87,3.16A4.53,4.53,0,0,1,59,57.55a5,5,0,0,1,1.82-.47,2.43,2.43,0,0,1,1,.18,3,3,0,0,1,2,2.81,3.08,3.08,0,0,1-.24,1.35,1.7,1.7,0,0,1-1.7,1.11,1.83,1.83,0,0,0,.12-.7c0-.55-.39-.82-1.17-.82a1.82,1.82,0,0,0-1,.29,20,20,0,0,1-3.22,1.46,15.92,15.92,0,0,1-6.15,1.29,4.13,4.13,0,0,1-2.17-.35,12.54,12.54,0,0,0,2-1.64,20,20,0,0,0,2.87-2.87,14.59,14.59,0,0,0,2-2.93,4.17,4.17,0,0,0,.59-1.76Q55.74,53.45,54.39,53.21Z"/><path class="cls-2" d="M60.84,74.54a4.14,4.14,0,0,1-2.29-.64,3.4,3.4,0,0,1,.59,1.93c-.24,2.07-1.56,3.16-4,3.28a1.62,1.62,0,0,1-1.75-1.58,7.64,7.64,0,0,0,.82.06c.7-.08,1.05-.59,1.05-1.52,0-.32-.08-.59-.12-.83A15.64,15.64,0,0,0,52.81,71a15.71,15.71,0,0,0-3.16-4,1.93,1.93,0,0,1-.47-1.52l1.93.47a26.65,26.65,0,0,1,5,1.58,19.9,19.9,0,0,1,3.81,2.17,2.49,2.49,0,0,0,1.46.76q.89,0,1.35-1.23c.9.12,1.35.76,1.35,1.93A3.23,3.23,0,0,1,60.84,74.54Z"/><path class="cls-2" d="M65.52,51c0,1.36-.48,2.07-1.46,2.11a4.83,4.83,0,0,1-.7-.06,1.62,1.62,0,0,0,.29-.76c0-.51-.43-.77-1.17-.77A50,50,0,0,0,57,51.34q-2.86.12-6.68.12c-2,0-3.81,0-5.45,0l-6.44.12-6.68-.23c-.79.11-1.18.49-1.18,1.11a1,1,0,0,0,.24.64,4.84,4.84,0,0,1-.65.06c-.93-.07-1.4-.74-1.4-2,0-.94.58-1.52,1.76-1.76a1.93,1.93,0,0,1-1.7-2.11c0-1.21.5-1.83,1.52-1.87a3.16,3.16,0,0,1,.64.06,1.07,1.07,0,0,0-.29.64c0,.86.55,1.29,1.64,1.29.43.08,1.17.16,2.23.24.08-1.33.12-2.52.12-3.58s0-1.78-.06-2.52a36.08,36.08,0,0,0-1.06-8.2,2.89,2.89,0,0,1,1.53-.35,8.43,8.43,0,0,1,1.81.35,9.74,9.74,0,0,0,2.52.35,11.4,11.4,0,0,0,2.76-.47,81.6,81.6,0,0,0-.88,11.84c0,1.13.09,2,.17,2.75h3.75v-.35c0-1.17,0-2.38-.11-3.63,0-.9.07-1.92.11-3,0-.94,0-2-.06-3.05,0-1.56.06-2.89.06-4A8.11,8.11,0,0,0,45,31.48c0-1.33-.43-2-1.29-2a1.67,1.67,0,0,0-1.29.59A4.1,4.1,0,0,1,42.2,29c0-1.4,1.1-2.16,3.29-2.28,2.22.08,3.49,1,3.8,2.87q.36-2.7,3.87-2.7c2,0,3.15.79,3.46,2.35a2.19,2.19,0,0,1-.18,1,2.17,2.17,0,0,0-1.4-.52c-.75.11-1.2.82-1.35,2.11a15.4,15.4,0,0,0-.29,4.22c.43,0,.85,0,1.28-.06q1.41.06,2.82.06Q58.55,36,60,35.87a3,3,0,0,0,1.23-.18c1.05-.15,1.62-.5,1.7-1a2.92,2.92,0,0,0-.35-.76,2,2,0,0,1,.76-.12c.9.12,1.36.8,1.4,2.05,0,1-.56,1.56-1.69,1.76a1.74,1.74,0,0,1,1.69,2c-.11,1.33-.56,2-1.34,2a5.55,5.55,0,0,1-.82-.06,1.52,1.52,0,0,0,.35-1.11,2.07,2.07,0,0,0-1.76-.59q-1.11,0-2.46.06-2.06-.06-3.93-.06c-.5,0-1,0-1.4.06,0,1.06,0,2.05.11,3,0,1.21-.05,2.33-.05,3.34v1.47c.93,0,1.91,0,2.93-.06a33,33,0,0,0,4.45-.18A3,3,0,0,0,62.6,47a1.17,1.17,0,0,0,.87-1.11,1.3,1.3,0,0,0-.35-.82,3,3,0,0,1,.82-.12c1,.12,1.51.78,1.58,2a2.25,2.25,0,0,1-1.81,2.11A1.94,1.94,0,0,1,65.52,51Z"/><rect x="81.67" y="13.59" width="78.67" height="78.67"/><path class="cls-2" d="M96.89,27.26a4.53,4.53,0,0,0,1.4.52,18.46,18.46,0,0,1,3.11,1,25.78,25.78,0,0,1,4.28,2,18.38,18.38,0,0,1,2.46,1.58,2.11,2.11,0,0,0,1.35.59c.62,0,1.09-.39,1.4-1.17A1.74,1.74,0,0,1,112,33.53,3.32,3.32,0,0,1,108.61,37a3.12,3.12,0,0,1-1.76-.64,4.36,4.36,0,0,1,.64,1.93c-.19,2-1.4,3.07-3.63,3.34a1.59,1.59,0,0,1-1.7-1.17c1,0,1.51-.43,1.58-1.29a2.44,2.44,0,0,0-.17-.88,17.19,17.19,0,0,0-2.58-5,23.1,23.1,0,0,0-3.63-4.51,2.17,2.17,0,0,1-.53-1A2.06,2.06,0,0,1,96.89,27.26Z"/><path class="cls-2" d="M96.71,44.19a23.44,23.44,0,0,1,3.58,1,34.06,34.06,0,0,1,4.45,2.22,34.41,34.41,0,0,1,4.45,3.75,8,8,0,0,0-4.68,3.11c-.82,1.52-1.86,2.28-3.11,2.28a16.64,16.64,0,0,0-1.64-5,26.72,26.72,0,0,0-2.11-3.63,14.28,14.28,0,0,0-2.11-2.64,2,2,0,0,1-.64-1.69A6.33,6.33,0,0,0,96.71,44.19Z"/><path class="cls-2" d="M105.85,76.65a6,6,0,0,0,1.23-.17c-.07,1.13-.87,1.75-2.4,1.87q-3.75,0-4.22-3.4a5.74,5.74,0,0,1,.35-1.87,4.88,4.88,0,0,1-3.16,1,3.34,3.34,0,0,1-2.93-3.16c0-1.13.41-1.72,1.23-1.76a1.25,1.25,0,0,0,1.29,1.17,3.3,3.3,0,0,0,.82-.11,10.45,10.45,0,0,0,3.46-2.88,21.22,21.22,0,0,0,2.93-3.75,16,16,0,0,0,2.17-3.69,29.41,29.41,0,0,0,1.52-3c.47.23.7,1.52.7,3.86a25.13,25.13,0,0,1-1.52,8.79,16.07,16.07,0,0,1-2.17,5.1,2.72,2.72,0,0,0-.12.76A1.32,1.32,0,0,0,105.85,76.65Z"/><path class="cls-2" d="M144.35,73.31l-.53.12a3.07,3.07,0,0,1-2.22-.65,10.63,10.63,0,0,1,.52,2.23q0,3-3.45,3.75c-1.53,0-2.29-.41-2.29-1.23,1,0,1.52-.35,1.64-1a2,2,0,0,0-.58-1.59,57.53,57.53,0,0,1-5-5.91,33.1,33.1,0,0,1-3.87-8.21,37.56,37.56,0,0,1-1.41-7.32v-.59q-1.75.06-3.45.06c-.12.7-.22,1.25-.3,1.64a49,49,0,0,1-4.16,13.18,26.93,26.93,0,0,1-5.45,7.56,17.11,17.11,0,0,1-4,3.34,3.54,3.54,0,0,1-1.7.53h-.58c.35-.66.7-1.31,1-1.93a32.28,32.28,0,0,0,3.05-6A56,56,0,0,0,114,63.58a72.49,72.49,0,0,0,1.46-9.08,127.22,127.22,0,0,0,.65-13.65V32.12c-.08-1.56-.63-2.34-1.64-2.34a3.13,3.13,0,0,0-1.35.76,1.74,1.74,0,0,1-.35-1.17q.12-2.3,3.51-2.7,4.05.18,4,3.75c.11-2.34,1.54-3.55,4.27-3.63q3.34.23,3.64,2.87a2,2,0,0,1-.24,1.05,1.76,1.76,0,0,0-1.7-.76q-.93.06-1.29,1.47h.59c1.44,0,3.05-.16,4.8-.35a24.47,24.47,0,0,0,6.68-2,4.57,4.57,0,0,1,3.23,1.64,10.46,10.46,0,0,0,4.45,2.41,27.27,27.27,0,0,1-.53,5.09,31.51,31.51,0,0,0-.47,5.22c0,.86,0,1.87.06,3a39.15,39.15,0,0,0,.53,4.57c-.2.5-1.19,1-3,1.46a10,10,0,0,0-4.28,2.29A11.55,11.55,0,0,0,131.87,53c-1.1-.08-2.13-.14-3.11-.18a32.92,32.92,0,0,0,3.81,6.21,26.62,26.62,0,0,0,3.75,4.63q4.27,4.39,7.21,5.45.71.06,1.17.06c.82,0,1.23-.55,1.23-1.52.9.07,1.35.74,1.35,2A3.33,3.33,0,0,1,144.35,73.31Z"/><path d="M135.5,43.14q0-4.17-.23-7.45a10.41,10.41,0,0,0-3.28-.52q-2-.06-4.05-.06c-.7,0-1.79,0-3.28.06,0,1.83-.1,4.18-.17,7s-.32,5-.47,6.79c1.25.12,2.61.18,4.1.18a30.3,30.3,0,0,0,6.74-.53A20.88,20.88,0,0,0,135.5,43.14Z"/><rect x="163.33" y="13.59" width="78.67" height="78.67"/><path class="cls-2" d="M198.07,27.29a6,6,0,0,0,2.75,1.81,31.1,31.1,0,0,1,4.28,2.29,10.91,10.91,0,0,1,3.22,2.87,8.4,8.4,0,0,0-4.57,2.64,4.31,4.31,0,0,1-3.22,1.75,2.15,2.15,0,0,1-.53-.06,6.36,6.36,0,0,0,.12-1.17,10.68,10.68,0,0,0-.18-1.7,12.3,12.3,0,0,0-1.17-3.63,11.11,11.11,0,0,1-1.11-3.69C197.66,27.77,197.79,27.4,198.07,27.29Z"/><path class="cls-2" d="M184.47,27.46a6.22,6.22,0,0,0,2.76,1.94,30.35,30.35,0,0,1,4.33,2.4,11,11,0,0,1,3.23,3,8.32,8.32,0,0,0-4.57,2.63A4.33,4.33,0,0,1,187,39.18a2.86,2.86,0,0,1-.58-.06,4.79,4.79,0,0,0,.17-1.17,11.94,11.94,0,0,0-.17-1.76,13.85,13.85,0,0,0-1.18-3.81,11.48,11.48,0,0,1-1.17-3.81C184.06,28,184.2,27.58,184.47,27.46Z"/><path class="cls-2" d="M225.49,71.23a10.33,10.33,0,0,1-1.47-.12A3.1,3.1,0,0,1,225.49,74q-.36,3.45-3.63,3.51a1.89,1.89,0,0,1-1.35-.76,1.28,1.28,0,0,0,1.23-1.41,1.42,1.42,0,0,0-.88-1.34l-4.16-2.82a33,33,0,0,1-4.34-3.28A23.62,23.62,0,0,1,208.15,63q-.89-1.63-1.41-2.7,0,3.1.12,6.45c0,2.23,0,4.82,0,7.79.08,1.45.49,2.19,1.24,2.23a2.44,2.44,0,0,0,1.58-.76,2.54,2.54,0,0,1,.29,1.23,2.42,2.42,0,0,1-.88,1.58,3.78,3.78,0,0,1-2.75.82,3,3,0,0,1-2.35-.88,7.4,7.4,0,0,1-1.34-2.4q-.3,2.06-1.35,2.58a3.77,3.77,0,0,1-2.11.7,5,5,0,0,1-2.52-.53,2,2,0,0,1-1.11-1.7,4,4,0,0,1,.17-1,2.92,2.92,0,0,0,1.47.41c.74,0,1.15-.59,1.23-1.64q.22-6.51.23-10.08V63.38a30.88,30.88,0,0,1-6.56,6,32.22,32.22,0,0,1-7.56,4.75,22.86,22.86,0,0,1-6.33,1.93c-1.17,0-1.83-.11-2-.35a26.52,26.52,0,0,0,3.11-1.7,28.92,28.92,0,0,0,6.21-5.56,38.52,38.52,0,0,0,5.68-7.27,28.1,28.1,0,0,0,1.58-2.81c-1.13,0-2.15.06-3,.06l-9.5-.24c-.78.12-1.17.49-1.17,1.12a1,1,0,0,0,.24.64,6.27,6.27,0,0,1-.65.06c-.94-.08-1.41-.74-1.41-2,0-.94.59-1.53,1.76-1.76a1.94,1.94,0,0,1-1.7-2.11c0-1.21.51-1.84,1.53-1.87a4.16,4.16,0,0,1,.64,0,1.17,1.17,0,0,0-.23.65c0,.86.52,1.29,1.58,1.29a58.83,58.83,0,0,0,7.5.29c3.08.08,6.37.12,9.84.12h.41c0-.94-.08-1.78-.11-2.52a12.36,12.36,0,0,0-1.12-4.63,3.86,3.86,0,0,1,1.76-.35,11.93,11.93,0,0,1,2.58.29,10.57,10.57,0,0,0,2.93.47,9.55,9.55,0,0,0,3.22-.59,18.83,18.83,0,0,0-1,6q0,.59-.06,1.23c.62,0,1.11-.06,1.46-.06q3.69,0,7.74-.12c3.36,0,5.5-.06,6.44-.17a6.3,6.3,0,0,0,2.64-.47,1.2,1.2,0,0,0,.88-1.11,1.32,1.32,0,0,0-.35-.82,3,3,0,0,1,.87-.12c.94.12,1.45.78,1.53,2a2.27,2.27,0,0,1-1.82,2.11A2,2,0,0,1,228,57.81c0,1.37-.49,2.07-1.47,2.11a5,5,0,0,1-.7-.06,1.48,1.48,0,0,0,.29-.76c0-.51-.43-.76-1.17-.76-.94-.12-3.61-.18-8-.18q-3.69.12-8.49.12a9.26,9.26,0,0,0,.94.94,27.78,27.78,0,0,0,4.92,3.57,28.34,28.34,0,0,0,10,3.93,5.85,5.85,0,0,0,1,.12c.94,0,1.41-.37,1.41-1.12a5,5,0,0,0-.06-.7Q229,65,229,67.54,228.77,70.94,225.49,71.23Z"/><path class="cls-2" d="M226.13,48.79Q223,50,220.39,51.13a11,11,0,0,1-4,1.18,6.85,6.85,0,0,1-.88-.06,10.06,10.06,0,0,0,1.81-1.82,12.11,12.11,0,0,0,1.29-2.11,13,13,0,0,0,.82-2.87c-2.65-.16-5.9-.23-9.72-.23H197.66a93.37,93.37,0,0,0-11.31.41,3.11,3.11,0,0,0-.29,1.34,7.3,7.3,0,0,0,.05.94c0,1,.47,1.51,1.29,1.58a2.59,2.59,0,0,0,1.41-.58,1.81,1.81,0,0,1,.23,1,2.45,2.45,0,0,1-.7,1.47,4.08,4.08,0,0,1-2.46.76,3.93,3.93,0,0,1-2.11-.76,3.32,3.32,0,0,1-1.05-2,3.5,3.5,0,0,1-1.53,2.17,5.5,5.5,0,0,1-2.58.52,2.68,2.68,0,0,1-2.11-.64,2,2,0,0,1-.46-1.06,2.71,2.71,0,0,1,.17-1,2.35,2.35,0,0,0,1.23.47c.67,0,1.12-.63,1.35-1.88,0-.66.06-1.29.06-1.87a6.22,6.22,0,0,0-.29-1.82,9.15,9.15,0,0,0-.71-1.93,13.64,13.64,0,0,0,4.63-1.47,7.34,7.34,0,0,1,3.58-1q5.44,2.1,14.41,2.11,4.8,0,8-.18a15.68,15.68,0,0,0,1.11-1.82,34.21,34.21,0,0,0,2.23-4.45,21.47,21.47,0,0,0,1.4-3.57,11.69,11.69,0,0,0,.35-2.17q-.06-1.41-.93-1.41a1.91,1.91,0,0,0-.88.24,6.23,6.23,0,0,1-.06-.71c.27-1,1.17-1.54,2.69-1.58q3.65.64,3.64,3.28a4.19,4.19,0,0,1-.41,1.76,3.06,3.06,0,0,1,2.46-1.52q3.33,0,4,2.75c0,1.52-.45,2.29-1.35,2.29q-.28-1.17-1.11-1.29a1.84,1.84,0,0,0-1.52.88,19.26,19.26,0,0,1-4.28,4.21,15.06,15.06,0,0,1-4.4,2.76l-.52.23a106.48,106.48,0,0,0,10.95-1.76c.71,0,1.53.63,2.47,1.76a12.26,12.26,0,0,0,3,2.76A5.09,5.09,0,0,1,229.3,46C229.26,47.07,228.2,48,226.13,48.79Z"/><rect x="245" y="13.59" width="78.67" height="78.67"/><path class="cls-2" d="M310.67,54.82c0,1.37-.49,2.08-1.46,2.11a4.9,4.9,0,0,1-.71,0,1.58,1.58,0,0,0,.3-.77c0-.5-.43-.76-1.18-.76q-1.51-.16-8.37-.17c-2.93.08-6.33.11-10.2.11q-4.64.06-8.38.06-5.62.12-9.78.12L261,55.24q-1.17.23-1.17,1.11a1,1,0,0,0,.24.64,4.84,4.84,0,0,1-.65.06c-.94-.08-1.4-.74-1.4-2,0-.94.58-1.52,1.75-1.76a2,2,0,0,1-1.7-2.11c0-1.21.51-1.83,1.53-1.87a3.16,3.16,0,0,1,.64.06A1.22,1.22,0,0,0,260,50c0,.86.53,1.29,1.58,1.29,1.21.16,3.83.25,7.85.29q4.86.12,10.31.12c5.24,0,8.71-.06,10.43-.18q3.81,0,8.09,0c3.52,0,5.76-.06,6.74-.18a6.61,6.61,0,0,0,2.75-.47,1.17,1.17,0,0,0,.88-1.11,1.62,1.62,0,0,0-.29-.82,2.33,2.33,0,0,1,.76-.12c1,.12,1.5.78,1.58,2a2.26,2.26,0,0,1-1.82,2.11A2,2,0,0,1,310.67,54.82Z"/><path class="cls-12" d="M226.92,135.88a18.63,18.63,0,0,1-4.68,12.48,22.63,22.63,0,0,1-11.49,7.15,36.19,36.19,0,0,1-8.49,1.4,2.5,2.5,0,0,1-1.7-.41c.54-.23,1.81-.72,3.81-1.46a22.8,22.8,0,0,0,8.78-6.1A19.4,19.4,0,0,0,218,135.41q0-9-2.52-13.89a19.08,19.08,0,0,0-1.35-2.28Q210.58,115,202.37,115a17.62,17.62,0,0,0-8.9,2,14.09,14.09,0,0,0-5.86,6.38,21.51,21.51,0,0,0-1.7,8.68v2.34q.06,1.75.06,2.4a31.19,31.19,0,0,0,1,8.09q1.17,4.28,2.93,4.28,2.46,0,4.93-9.79a48.48,48.48,0,0,0,1.17-6.21,57.25,57.25,0,0,0,.64-7.32q0-4.69-1.58-4.69a2.21,2.21,0,0,0-1.41.88,2.42,2.42,0,0,1-.41-1.29,2.34,2.34,0,0,1,1.29-1.94,4.33,4.33,0,0,1,2.29-.64,3.33,3.33,0,0,1,3.63,3.11q.41-3.16,4-3.17a5,5,0,0,1,2.35.59,2,2,0,0,1,.7,3,2.06,2.06,0,0,0-1.29-.59q-.93,0-1.23,2.46a107.56,107.56,0,0,1-2.81,14.77,39,39,0,0,1-3.63,8.67q-3.34,5.69-8.85,5.68a8.77,8.77,0,0,1-6.21-2.11c-.16-.19-.39-.47-.71-.82s-.58-.6-1.05-1.11c-2.19-2.74-3.28-7-3.28-12.66a36.07,36.07,0,0,1,.41-6.15A20.68,20.68,0,0,1,184,119.47a21.11,21.11,0,0,1,8.32-5.51,29,29,0,0,1,9.91-1.7q8.55,0,13.65,2.46a15.6,15.6,0,0,1,3.34,2Q226.93,123,226.92,135.88Z"/><path d="M274.49,130H273.2q0,1.29.06,2.34,1.23,0,2.34.06,5.56,0,11.37-.12c3,0,5.64,0,7.91-.06h.94q0-1.23-.06-2.28c-3.28-.08-6.45-.12-9.49-.12Q279.88,130,274.49,130Z"/><path d="M275,135.41h-1.7q0,1.35.06,2.52,3.92-.12,6.5-.12c2.38,0,4.75,0,7.09.06a51,51,0,0,0,8.91-.47v-2.11c-2.86,0-5.61-.06-8.27-.06Q280.81,135.41,275,135.41Z"/><path d="M279.24,124.27h-6.16v2.58c.71,0,1.35,0,1.94.06,3.47,0,7,0,10.66-.12,2.77,0,5.22,0,7.33-.05,1,0,1.83-.06,2.57-.06a24.16,24.16,0,0,0-.29-2.64c-3.13.2-6.5.29-10.14.29Q283.64,124.33,279.24,124.27Z"/><path class="cls-2" d="M302.73,155.86a4,4,0,0,1-1.81-.41,3,3,0,0,1,1.05,2.22c-.08,2-1.19,3.21-3.34,3.52-1.29,0-2-.45-2.11-1.35.94,0,1.45-.37,1.52-1.11a2.86,2.86,0,0,0-.41-1.35,10.84,10.84,0,0,0-2.34-3q-1.94-1.81-4.45-3.75c-.75-.62-1.12-1.13-1.12-1.52a1.49,1.49,0,0,1,.06-.47,15.41,15.41,0,0,0,2.17.41,26.6,26.6,0,0,1,6,1,17.52,17.52,0,0,1,4.39,1.75,2.08,2.08,0,0,0,1.06.24q.93,0,1.05-1.29a1.52,1.52,0,0,1,1.7,1.58Q306.13,155.63,302.73,155.86Z"/><path class="cls-2" d="M308.65,150.06l-.76-.12a2,2,0,0,0,.29-.82,1.32,1.32,0,0,0-1.23-.76c-1.45-.08-3.34-.12-5.68-.12-3.13,0-6.62,0-10.49.06q-8.73,0-14.94.06h-2.23a4.1,4.1,0,0,1,1.11,2.75,2.56,2.56,0,0,1-.64,1.7,4.71,4.71,0,0,1,2.52-.76q3.22.12,3.69,3.57c0,1.41-.53,2.19-1.58,2.35a1.22,1.22,0,0,0-1.17-1.41,2.54,2.54,0,0,0-1.29.53,39.41,39.41,0,0,1-5.33,2.34,25.4,25.4,0,0,1-7.86,1.76c-.82,0-1.32-.12-1.52-.35a14.68,14.68,0,0,0,3.16-2.35,15.08,15.08,0,0,0,3.17-3.16,12.45,12.45,0,0,0,2.28-3.16,4.1,4.1,0,0,0,.36-1.76,1.6,1.6,0,0,0-1.59-1.7c0-.16.08-.29.12-.41h-7c-1.21,0-1.82.31-1.82.94a1.44,1.44,0,0,0,.24.82,4,4,0,0,1-.77-.06c-.82-.08-1.23-.74-1.23-2s.61-1.92,1.7-2c-1.13-.19-1.7-.78-1.7-1.75,0-1.29.45-2,1.35-2a3.27,3.27,0,0,1,.65.06,2.26,2.26,0,0,0-.18.76c.16.55.7.9,1.64,1.06a51.21,51.21,0,0,0,5.16.17q6,.12,10.25.12,6.21.06,12,.06,6.45,0,11.31-.18,3.81-.1,6.21-.35a1.1,1.1,0,0,0,1.17-1.23,1.55,1.55,0,0,0-.35-.82,1.22,1.22,0,0,1,.65-.17c1,.15,1.52.86,1.64,2.11a2.06,2.06,0,0,1-1.76,2.1c1.25.2,1.87.82,1.87,1.88C310.11,149.2,309.63,149.94,308.65,150.06Z"/><rect x="326.67" y="95.25" width="78.67" height="78.67"/><path class="cls-2" d="M391,145.37c0,1.33-.47,2-1.41,2a5,5,0,0,1-.7-.06,1.52,1.52,0,0,0,.29-.76c0-.47-.41-.7-1.11-.7-.94-.12-3.57-.18-7.91-.18-2.66.08-5.74.12-9.26.12.9.51,1.64.92,2.23,1.23a28.68,28.68,0,0,0,4.1,1.64,33.43,33.43,0,0,0,4.34,1.23,30.11,30.11,0,0,0,5.09.82c1.21,0,1.84-.31,1.88-.94a2.18,2.18,0,0,0-.24-1.11h.94c1.17.23,1.76,1.07,1.76,2.52q-.06,3.45-3.63,3.69h-1c1.13.43,1.7,1.42,1.7,3-.16,2.11-1.09,3.24-2.81,3.4-1,0-1.58-.28-1.82-.82q1.17-.24,1.17-1.23a1.09,1.09,0,0,0-.76-1.06l-3.75-1.46a25.25,25.25,0,0,1-5.51-2.88,12.72,12.72,0,0,1-3.45-3,25.62,25.62,0,0,1-2.05-2.4,13.75,13.75,0,0,1-1.47-2.52h-1.93a21.58,21.58,0,0,1-6.56,7.38,35.7,35.7,0,0,1-7,4.39,22.92,22.92,0,0,1-6.5,2.41c-1.33.15-2.05.25-2.17.29-.9-.08-1.44-.26-1.64-.53l2.4-1.11A37.09,37.09,0,0,0,349,156a21.79,21.79,0,0,0,5.33-4.22,16.21,16.21,0,0,0,3.92-5.33,4,4,0,0,0,.24-.53c-1.92,0-3.65,0-5.22.06l-9.37-.23q-1.11.18-1.11,1.05a1,1,0,0,0,.23.65,4.72,4.72,0,0,1-.64.06c-.9-.08-1.35-.73-1.35-1.94,0-.9.56-1.46,1.7-1.7a1.88,1.88,0,0,1-1.64-2.05c0-1.17.48-1.77,1.46-1.81a3.27,3.27,0,0,1,.65.06,1.14,1.14,0,0,0-.24.64q0,1.23,1.53,1.23c1.13.16,3.61.25,7.44.29,2.54.08,5.19.12,8,.12a14.79,14.79,0,0,0,.46-2.4c.12-.59.22-1.15.3-1.7h-.35q-4.58-.06-9.26-.06c-1.06,0-1.58.27-1.58.82a2.33,2.33,0,0,0,.11.76,2.35,2.35,0,0,1-.58-.06c-.75-.07-1.12-.66-1.12-1.75s.55-1.68,1.53-1.76q-1.53-.24-1.53-1.53c0-1.13.39-1.71,1.18-1.75a2.06,2.06,0,0,1,.52.06,4.58,4.58,0,0,0-.06.64c.12.47.59.78,1.41.94a25.65,25.65,0,0,0,3.52.17q3.86.06,6.68.06c0-.31.05-.62.05-.94,0-1.09,0-2.11-.05-3h-2.05q-5.4-.06-11-.06c-1.13,0-1.7.29-1.7.88a1.41,1.41,0,0,0,.23.76,4,4,0,0,1-.76-.06c-.74-.08-1.11-.7-1.11-1.87s.57-1.8,1.58-1.88c-1-.19-1.58-.74-1.58-1.64,0-1.21.41-1.84,1.23-1.87a3.2,3.2,0,0,1,.64.05,2,2,0,0,0-.17.71c.15.5.66.84,1.52,1a33.57,33.57,0,0,0,4.22.18c3.13.08,5.84.12,8.15.12h.82c0-.79-.06-1.55-.06-2.29q-.06-2.28-1.41-2.28a1.88,1.88,0,0,0-1.58.76,2.2,2.2,0,0,1-.35-1.17q0-2.52,3.75-2.76c2.54.2,3.9,1.43,4.1,3.69.12-2.42,1.56-3.69,4.34-3.81q3.63.42,3.8,2.82a2.54,2.54,0,0,1-.23,1.23,2.17,2.17,0,0,0-1.64-.76q-1.11,0-1.47,2.22c-.15.74-.29,1.55-.41,2.4,3.44,0,6.43,0,9-.17,2-.08,3.69-.2,5-.35a1,1,0,0,0,1.11-1.17,1.5,1.5,0,0,0-.35-.77,1.31,1.31,0,0,1,.65-.17c.89.15,1.4.82,1.52,2a1.92,1.92,0,0,1-1.64,2c1.17.2,1.76.78,1.76,1.76,0,1.29-.45,2-1.35,2.11l-.76-.12a1.87,1.87,0,0,0,.23-.76c-.12-.39-.49-.62-1.11-.7-1.14-.08-2.66-.12-4.57-.12-2.5,0-5.3,0-8.38.06h-1.35c-.16,1.29-.35,2.65-.59,4.1h.36q4.33,0,7.61-.12c1.68-.08,3.09-.19,4.22-.35a.94.94,0,0,0,1-1,1.85,1.85,0,0,0-.29-.76,1.51,1.51,0,0,1,.58-.12c.82.12,1.29.72,1.41,1.81a1.83,1.83,0,0,1-1.53,1.88c1.1.16,1.64.7,1.64,1.64,0,1.21-.43,1.87-1.28,2l-.65-.12a2.2,2.2,0,0,0,.18-.76c-.12-.35-.45-.56-1-.64a33.2,33.2,0,0,0-3.87-.18q-3.17,0-7.09.12h-1.81a33.74,33.74,0,0,1-1.23,4.1c1.91,0,3.3,0,4.16-.12q3.63,0,7.61,0,5,0,6.45-.18a5.92,5.92,0,0,0,2.58-.47,1.13,1.13,0,0,0,.82-1.05,1.35,1.35,0,0,0-.35-.82,2.86,2.86,0,0,1,.82-.12c.93.12,1.44.76,1.52,1.93a2.23,2.23,0,0,1-1.76,2.05A1.91,1.91,0,0,1,391,145.37Z"/><path class="cls-2" d="M389.41,121.64q-3.17,1-5.86,2.11a12.57,12.57,0,0,1-4,1,5.65,5.65,0,0,1-1.29-.17,9.77,9.77,0,0,0,2.34-1.64,11.42,11.42,0,0,0,1.64-1.88,10.41,10.41,0,0,0,1.06-2.58q-3.93-.23-9.67-.23h-11.9a78.9,78.9,0,0,0-11.13.47,1.72,1.72,0,0,0-.35,1,6.09,6.09,0,0,0,.06.88c0,1.06.52,1.62,1.46,1.7a2.66,2.66,0,0,0,1.47-.59,1.84,1.84,0,0,1,.29,1.06,2.6,2.6,0,0,1-.76,1.58,4.11,4.11,0,0,1-2.7.82,3.56,3.56,0,0,1-2.28-.88,3.38,3.38,0,0,1-1.12-2.22,4.11,4.11,0,0,1-1.64,2.4,5.67,5.67,0,0,1-2.87.64,2.8,2.8,0,0,1-2.22-.82,1.85,1.85,0,0,1-.53-1.11,3.68,3.68,0,0,1,.17-1.11,2.48,2.48,0,0,0,1.35.52c.71,0,1.19-.66,1.47-2,0-.66.06-1.27.06-1.82a4.89,4.89,0,0,0-.36-1.75,7.42,7.42,0,0,0-.76-1.88,14.74,14.74,0,0,0,5-1.52,8.44,8.44,0,0,1,3.87-1.06,35.5,35.5,0,0,0,11.54,2.11v-.17a3.93,3.93,0,0,0-.06-.65,7.93,7.93,0,0,0,.06-.88.61.61,0,0,0-.23-.52c0-1.33-.43-2-1.29-2a1.67,1.67,0,0,0-1.29.59,4.1,4.1,0,0,1-.18-1.05c0-1.41,1.1-2.15,3.28-2.23s3.5,1,3.81,2.75c.24-1.76,1.53-2.63,3.87-2.63,2,0,3.14.78,3.46,2.34a2.26,2.26,0,0,1-.18,1,2.13,2.13,0,0,0-1.4-.53c-.75.12-1.2.8-1.35,2-.2.08-.29.35-.29.82a4.14,4.14,0,0,0-.06.7,1,1,0,0,0,.06.41c1.44,0,2.75-.09,3.92-.17a85.55,85.55,0,0,0,11.72-1.88c.66,0,1.44.65,2.34,1.82a12.6,12.6,0,0,0,2.87,2.87,5.42,5.42,0,0,1,1.82,1.7C392.59,120.1,391.52,120.93,389.41,121.64Z"/><path class="cls-13" d="M64.64,119.83l-.45.22-.77-1.75h-4v12.06h1.32v.57H57.33v-.57h1.32V118.3H55.31c-.92,0-1.68.38-1.68,1.38,0,.69.36,1.24.94,1.24.25,0,.34-.11.34-.26s-.09-.19-.09-.38a.57.57,0,0,1,.58-.55.61.61,0,0,1,.64.68c0,.45-.32,1.08-1.35,1.08a1.65,1.65,0,0,1-1.66-1.8c0-1.33,1-2,2.28-2h8.43Z"/><path class="cls-13" d="M76.75,130.35a1.12,1.12,0,0,1-1.15.69,1.23,1.23,0,0,1-1.34-1.28v-4.64c0-2.37-.74-3.5-2.7-3.5-1.54,0-2.79.69-4.15,2.43v6.31h1.13v.57h-3v-.57H66.7V117.73H65.57v-.56h1.84v6.22c1.47-1.75,2.7-2.34,4.34-2.34,2.19,0,3.22,1.23,3.22,3.89v4.73c0,.62.32.77.7.77a.55.55,0,0,0,.6-.34Z"/><path class="cls-13" d="M86.61,128.63l.45.3a5.36,5.36,0,0,1-4.6,2.34,4.86,4.86,0,0,1-5.19-5.11A4.94,4.94,0,0,1,82.53,121c2.68,0,4.32,1.51,4.53,3.83h-8.9a4.68,4.68,0,0,0-.13,1.21,4.34,4.34,0,0,0,4.58,4.62A4.56,4.56,0,0,0,86.61,128.63Zm-8.28-4.35h7.9c-.32-1.87-1.81-2.66-3.7-2.66A4.27,4.27,0,0,0,78.33,124.28Z"/><path class="cls-13" d="M96.87,130.42a1.5,1.5,0,0,1-1.4.81,1.66,1.66,0,0,1-1.77-1.88v-7.43h-1v-.57h1v-1.26c.26,0,.34-.13.34-1h.37v2.3h2.42v.57H94.41v7.52a1.08,1.08,0,0,0,1.21,1.19,1,1,0,0,0,.89-.45Z"/><path class="cls-13" d="M104.39,122a.71.71,0,0,1-.72.81.58.58,0,0,1-.64-.58c0-.24.11-.3.11-.43s-.11-.17-.3-.17c-1,0-2.17.92-3.07,2.83v5.91h1.32v.57H97.92v-.57h1.13v-8.44H97.92v-.57h1.85v2.23c1.11-2,2.32-2.53,3.24-2.53C104.12,121.05,104.39,121.58,104.39,122Z"/><path class="cls-13" d="M116.11,130.36v.57h-1.85V129c-1.43,1.68-2.64,2.24-4.26,2.24-2.19,0-3.22-1.22-3.22-3.88v-5.43h-1.32v-.57h2v5.77c0,2.38.74,3.51,2.7,3.51,1.53,0,2.73-.66,4.07-2.34v-6.37h-1.32v-.57h2v9Z"/><path class="cls-13" d="M121.25,130.42a1.47,1.47,0,0,1-1.39.81,1.66,1.66,0,0,1-1.77-1.88v-7.43h-1v-.57h1v-1.26c.26,0,.34-.13.34-1h.37v2.3h2.42v.57H118.8v7.52a1.07,1.07,0,0,0,1.21,1.19,1,1,0,0,0,.88-.45Z"/><path class="cls-13" d="M133.49,130.35a1.11,1.11,0,0,1-1.15.69,1.23,1.23,0,0,1-1.34-1.28v-4.64c0-2.37-.73-3.5-2.69-3.5-1.55,0-2.79.69-4.15,2.43v6.31h1.13v.57h-3v-.57h1.13V117.73h-1.13v-.56h1.85v6.22c1.47-1.75,2.69-2.34,4.33-2.34,2.19,0,3.23,1.23,3.23,3.89v4.73c0,.62.32.77.7.77a.56.56,0,0,0,.6-.34Z"/><path class="cls-13" d="M138.7,126.14a5.28,5.28,0,1,1,5.28,5.13A5,5,0,0,1,138.7,126.14Zm9.8,0a4.53,4.53,0,0,0-9.05,0,4.53,4.53,0,1,0,9.05,0Z"/><path class="cls-13" d="M155.22,118a.6.6,0,0,1-.61.64.55.55,0,0,1-.6-.49c0-.25.11-.32.11-.44s-.19-.32-.54-.32c-.83,0-1.27.53-1.27,1.85v2.07h1.89v.57h-1.89v8.44h1.42v.57h-3.26v-.57h1.13v-8.44h-1.13v-.57h1.13v-2c0-1.75.71-2.41,2-2.41S155.22,117.49,155.22,118Z"/><path class="cls-13" d="M19.77,149.86l-1.19,1.69H8.47V151H9.6V138.92H7.4c-.93,0-1.68.38-1.68,1.38,0,.7.36,1.24.94,1.24.25,0,.34-.11.34-.26s-.09-.19-.09-.38a.56.56,0,0,1,.58-.54.6.6,0,0,1,.64.68c0,.45-.32,1.07-1.35,1.07a1.64,1.64,0,0,1-1.66-1.79c0-1.34,1-2,2.28-2H17.48L18.63,140l-.45.3-1-1.42h-6.9v4.51h3.51l-.76-1.08.42-.3,2.11,3-.42.3-1-1.38h-3.9v7h8l1-1.43Z"/><path class="cls-13" d="M20.92,151h1.13v-8.45H20.92V142h1.85v9H23.9v.56h-3Zm.85-11.84a.63.63,0,0,1,.64-.64.64.64,0,0,1,0,1.28A.63.63,0,0,1,21.77,139.15Z"/><path class="cls-13" d="M25.31,151h1.13v-8.45H25.31V142h1.85v9h1.13v.56h-3Zm.85-11.84a.63.63,0,0,1,.64-.64.64.64,0,0,1,0,1.28A.63.63,0,0,1,26.16,139.15Z"/><path class="cls-13" d="M29.41,146.8c0-3.07,2.13-5.09,5.33-5.09,1.95,0,4,.87,4,2.27a.66.66,0,0,1-.72.73.64.64,0,0,1-.69-.7c0-.45.3-.47.3-.71,0-.7-1.87-1-2.83-1-2.83,0-4.66,1.73-4.66,4.48a4.2,4.2,0,0,0,4.43,4.45,4.19,4.19,0,0,0,3.91-2.05l.34.17a4.47,4.47,0,0,1-4.32,2.49A4.82,4.82,0,0,1,29.41,146.8Z"/><path class="cls-13" d="M51.15,151a1.13,1.13,0,0,1-1.15.7,1.23,1.23,0,0,1-1.34-1.28v-4.64c0-2.38-.74-3.51-2.7-3.51-1.54,0-2.79.7-4.15,2.43V151h1.13v.56H40V151H41.1V138.36H40v-.57h1.84V144c1.47-1.75,2.7-2.33,4.34-2.33,2.19,0,3.22,1.22,3.22,3.88v4.73c0,.62.32.77.7.77a.55.55,0,0,0,.6-.34Z"/><path class="cls-13" d="M52.27,151H53.4v-8.45H52.27V142h1.85v9h1.13v.56h-3Zm.85-11.84a.63.63,0,0,1,.64-.64.64.64,0,0,1,0,1.28A.63.63,0,0,1,53.12,139.15Z"/><path class="cls-13" d="M60.78,148.92a1.75,1.75,0,0,1,1.75-2c1,0,1.41.54,1.41,1.11a.59.59,0,0,1-.6.64.58.58,0,0,1-.62-.59c0-.15.09-.16.09-.33s-.11-.27-.37-.27c-.61,0-1.06.45-1.06,1.43,0,1.68,1.64,2.74,4,2.74,2.73,0,4.26-1.4,4.26-3.58,0-2.51-1.51-3-4-3.64-2.83-.78-4.37-1.49-4.37-3.43s1.49-3,4-3a5.05,5.05,0,0,1,3.68,1.45l0,0-1-1,.41-.32,1.41,1.92-.39.34a5.43,5.43,0,0,0-4.07-1.75c-2.25,0-3.38.79-3.38,2.19,0,1.88,1.74,2.37,3.6,2.82,3.08.76,4.81,1.57,4.81,4.23s-1.89,4.33-5,4.33C62.59,152.23,60.78,150.88,60.78,148.92Z"/><path class="cls-13" d="M82.7,151a1.12,1.12,0,0,1-1.15.7,1.23,1.23,0,0,1-1.34-1.28v-4.64c0-2.38-.73-3.51-2.69-3.51-1.55,0-2.79.7-4.15,2.43V151H74.5v.56h-3V151h1.13V138.36H71.52v-.57h1.85V144c1.47-1.75,2.7-2.33,4.34-2.33,2.18,0,3.22,1.22,3.22,3.88v4.73c0,.62.32.77.7.77a.55.55,0,0,0,.6-.34Z"/><path class="cls-13" d="M83.83,151H85v-8.45H83.83V142h1.84v9h1.14v.56h-3Zm.85-11.84a.64.64,0,1,1,.64.64A.63.63,0,0,1,84.68,139.15Z"/><path class="cls-13" d="M97.48,146.73c0,3.52-2,5.13-4.56,5.13a6.05,6.05,0,0,1-3.2-.93l-.53.87h-.38V138.36H87.68v-.57h1.85v5.43A4.24,4.24,0,0,1,93,141.71C95.62,141.71,97.48,143.35,97.48,146.73Zm-.75,0c0-3.28-1.73-4.45-3.86-4.45a4.13,4.13,0,0,0-3.34,1.6v4.24c0,2,1,3.09,3.3,3.09S96.73,150,96.73,146.77Z"/><path class="cls-13" d="M109.11,151v.56h-1.84v-1.94c-1.44,1.68-2.64,2.25-4.26,2.25-2.19,0-3.23-1.23-3.23-3.89v-5.43H98.46V142h2v5.77c0,2.37.73,3.5,2.69,3.5,1.53,0,2.74-.66,4.08-2.33v-6.38H106V142h2v9Z"/><path class="cls-13" d="M110.2,149.52c0-.62.3-1,.86-1a.69.69,0,0,1,.78.75c0,.57-.38.47-.38.85,0,.74,1.47,1.17,2.89,1.17,1.82,0,3.29-.73,3.29-2.37,0-1.49-1.2-1.8-4-2.49-1.76-.44-3-1-3-2.47,0-1.61,1.53-2.32,3.51-2.32s3.84.64,3.84,2.05c0,.55-.28.85-.75.85a.68.68,0,0,1-.77-.68c0-.43.35-.43.35-.75,0-.62-1.47-.87-2.62-.87-1.6,0-2.81.47-2.81,1.62,0,1.36,1.64,1.72,3.28,2.08,2.29.49,3.72,1,3.72,2.84,0,2.11-1.74,3.11-4,3.11C112.61,151.89,110.2,151.25,110.2,149.52Z"/><path class="cls-13" d="M130.11,151a1.12,1.12,0,0,1-1.15.7,1.23,1.23,0,0,1-1.34-1.28v-.21a3.93,3.93,0,0,1-3.6,1.64c-2.24,0-4-.91-4-3.15s1.88-3.41,4.67-3.41a7,7,0,0,1,3,.54v-.69c0-2-1-2.87-3.3-2.87-1.22,0-2.92.36-2.92,1.09,0,.31.34.14.34.66a.6.6,0,0,1-.66.61.71.71,0,0,1-.7-.76c0-.64.4-1.35,1.72-1.83a6.84,6.84,0,0,1,2.22-.37c2.72,0,4,1.17,4,3.5v5.15c0,.62.32.77.7.77a.55.55,0,0,0,.6-.34Zm-2.49-2.81v-1.83a7.27,7.27,0,0,0-2.9-.51c-2.34,0-4,.81-4,2.87s1.51,2.53,3.41,2.53C126.21,151.22,127.62,150.42,127.62,148.16Z"/><path class="cls-13" d="M144.26,142v.56h-1l-2.92,9.17h-.7L137,143.22l-2.72,8.49h-.69l-2.92-9.17h-1V142h2.74v.56h-1l2.62,8.22,2.62-8.22h-.87V142h2.74v.56h-1l2.62,8.22,2.62-8.22h-1V142Z"/><path class="cls-13" d="M155.22,151a1.13,1.13,0,0,1-1.15.7,1.23,1.23,0,0,1-1.34-1.28v-.21a3.93,3.93,0,0,1-3.6,1.64c-2.25,0-4-.91-4-3.15s1.89-3.41,4.68-3.41a7.05,7.05,0,0,1,3,.54v-.69c0-2-1-2.87-3.3-2.87-1.23,0-2.92.36-2.92,1.09,0,.31.34.14.34.66a.61.61,0,0,1-.66.61.7.7,0,0,1-.7-.76c0-.64.39-1.35,1.71-1.83a6.86,6.86,0,0,1,2.23-.37c2.71,0,4,1.17,4,3.5v5.15c0,.62.32.77.7.77a.56.56,0,0,0,.61-.34Zm-2.49-2.81v-1.83a7.37,7.37,0,0,0-2.91-.51c-2.33,0-4,.81-4,2.87s1.5,2.53,3.41,2.53S152.73,150.42,152.73,148.16Z"/></g></g></g></svg>