<svg xmlns="http://www.w3.org/2000/svg" viewBox="0 0 394.18 394.18"><defs><style>.cls-1{fill:none;}</style></defs><g id="レイヤー_2" data-name="レイヤー 2"><g id="レイヤー_3" data-name="レイヤー 3"><rect class="cls-1" width="394.18" height="394.18"/><path d="M343.79,154.09a11.9,11.9,0,0,0-8.78-3.88h-28.2c.06-.78.1-1.57.1-2.36a32.13,32.13,0,1,0-45.1,29.37h-5.52l-65.75,4.17-.19,0a3,3,0,0,0,.18-.75l3.32-35.4a11.89,11.89,0,0,0-11.83-13H153.83c.06-.78.1-1.57.1-2.36a32.13,32.13,0,1,0-45.1,29.38h-5.52a15.38,15.38,0,0,0-8.26,2.4L66.64,182.45a10.81,10.81,0,0,0-4.91,8.94l-4.87,21.48,0,.4a9.48,9.48,0,0,0,8.22,9.13l.5,17.8L89,243.62V244a7.49,7.49,0,0,1-2.72,5.5L59,264.81l-.4.26a16.62,16.62,0,0,0-6.22,10.65L47.4,321.38c-.86,6,3.84,12.14,10.3,13.39a13.14,13.14,0,0,0,15.58-11.62l6.44-37.24,0-.27a7,7,0,0,1,2.54-4.8l5.82,2.26c0,.46,0,.93,0,1.39l1.2,45.27c.17,6.05,8.23,10.07,13.49,10.07a11.93,11.93,0,0,0,12-11.71l.92-37.55,4.06,1a16.91,16.91,0,0,0,4.1.5,17.13,17.13,0,0,0,10.34-3.48l43.27-29.38.14-.1c4.24-3.24,6.7-12,7.07-15.94l3.38-36a3.3,3.3,0,0,0-.15-1.3,10.27,10.27,0,0,0,1.84,0l27.31-2.11,1.54,54.4,21.78,3.19,0,.64c0,.67-1.68,1.71-2.88,2.47a27.83,27.83,0,0,0-2.32,1.57l-23.52,16.93-.09.07a16.56,16.56,0,0,0-6.23,10.65l-4.93,45.66c-.86,6,3.84,12.14,10.31,13.39a13.13,13.13,0,0,0,15.57-11.62l6.44-37.24,0-.27a7.06,7.06,0,0,1,3.18-5.27l7.75-5a16,16,0,0,0-2.59,9.15l1.2,45.27c.16,6.05,8.22,10.07,13.48,10.07a11.94,11.94,0,0,0,12-11.71l.93-37.55,4.06,1a17.36,17.36,0,0,0,4.1.5,17.12,17.12,0,0,0,10.33-3.48l43.27-29.38.14-.1c4.24-3.24,6.7-12,7.07-15.94l9.18-97.9A11.91,11.91,0,0,0,343.79,154.09ZM249,147.85a25.84,25.84,0,1,1,25.84,25.84A25.87,25.87,0,0,1,249,147.85ZM96,129.92a25.84,25.84,0,1,1,25.83,25.84A25.86,25.86,0,0,1,96,129.92Zm2.53,37a9.06,9.06,0,0,1,4.81-1.38h39.52a9,9,0,0,1,7.21,3.67l19.1,26.19a5.19,5.19,0,0,1,.87,4.21,5.12,5.12,0,0,1-2.6,3.41c-9.33,5-24.27,13-33.54,18a6,6,0,0,1-4.69.45,6.14,6.14,0,0,1-3.64-3.08l-.09-.17a3.19,3.19,0,0,1,1.23-4.2l19.26-11.36a12,12,0,0,0,4.74-15.44l-.2-.43L144,179.65a3.14,3.14,0,1,0-4.66,4.22l3.6,4-70.35-2ZM64.3,215.44a3.18,3.18,0,0,1-1.11-2l1.47-6.51.26,8.95A3.17,3.17,0,0,1,64.3,215.44ZM88.74,276.6l1.94-1.26a15.81,15.81,0,0,0-.93,1.65ZM108.48,328a5.67,5.67,0,0,1-5.71,5.57c-3,0-7.16-2.52-7.2-4l-1.2-45.27a9.68,9.68,0,0,1,2.86-7.12l18.17-16.11.11-.1a3.93,3.93,0,0,0-4.87-6.11L79.52,275.1a13.34,13.34,0,0,0-6,9.86L67.06,322.2l0,.27a6.86,6.86,0,0,1-8.13,6.13c-3.22-.63-5.69-3.6-5.27-6.36l4.93-45.65a10.27,10.27,0,0,1,3.69-6.42L89.52,254.9l.39-.26a13.75,13.75,0,0,0,5.28-10.1l46.86,6.86.6-20.54a3.14,3.14,0,1,0-6.28-.18l-.4,13.48-64.23-9.41-1.21-42.63L137.37,194a3.15,3.15,0,0,0,6.27-.1L144,189l1.21,1.33a5.69,5.69,0,0,1-2.42,7l-19.26,11.36a9.5,9.5,0,0,0-3.63,12.48l.09.17a12.37,12.37,0,0,0,16.91,5.31c4.63-2.5,10.69-5.75,16.75-9,0,0,0,0,0,0v30a8.35,8.35,0,0,1-3.68,6.94L116,277.43a14.89,14.89,0,0,0-5.32,6.43,3.09,3.09,0,0,0-1.13,4.08c-.06.5-.12,1-.13,1.5Zm73.31-121.45-3.38,36c-.35,3.73-2.62,9.91-4.57,11.49l-43.25,29.37-.14.1a10.89,10.89,0,0,1-9.21,1.93l-3.72-.91a8.65,8.65,0,0,1,2-1.91l33.91-22.87a14.64,14.64,0,0,0,6.45-12.15v-30a3.15,3.15,0,0,0-1.43-2.63l11.93-6.38a11.46,11.46,0,0,0,3.84-16.86l-19.1-26.2a15.26,15.26,0,0,0-12.29-6.24h-8.05a32.27,32.27,0,0,0,18-20.77c.13,0,.26,0,.39,0H182a5.58,5.58,0,0,1,5.57,6.11l-3.32,35.4a3.12,3.12,0,0,0,1.12,2.7,13.53,13.53,0,0,0-7.5,12.09,11,11,0,0,0,3.53,8.08,10.73,10.73,0,0,0,1.72,1.29A3.11,3.11,0,0,0,181.79,206.52Zm7.46-7a4.6,4.6,0,0,1-3.56-1.24,4.65,4.65,0,0,1-1.52-3.46,7.23,7.23,0,0,1,6.77-7.2l65.45-4.16h39.43a9,9,0,0,1,7.2,3.66l19.11,26.2a5.19,5.19,0,0,1-1.74,7.62c-9.33,5-24.27,13-33.54,18a6,6,0,0,1-4.69.45,6.17,6.17,0,0,1-3.64-3.08l-.08-.18a3.18,3.18,0,0,1,1.22-4.19l19.26-11.37a11.94,11.94,0,0,0,4.74-15.43l-.2-.43L297,197.58a3.14,3.14,0,1,0-4.66,4.22l3.6,4-46.13-1.28a8.6,8.6,0,0,0-2.61-6.2c-2.86-2.64-7.13-2.64-10.09-2.41Zm29.25,4.05,19.06-1.48c3.62-.28,4.9.36,5.34.76a2.31,2.31,0,0,1,.57,1.41Zm43.91,103.75-.94,38.53a5.69,5.69,0,0,1-5.72,5.57c-3,0-7.16-2.52-7.2-4l-1.2-45.27a9.65,9.65,0,0,1,2.87-7.12L268.39,279l.1-.1a3.93,3.93,0,0,0-4.87-6.11L232.5,293a13.35,13.35,0,0,0-6,9.87l-6.43,37.24,0,.26a6.86,6.86,0,0,1-8.13,6.14c-3.22-.63-5.69-3.6-5.27-6.36l4.93-45.65a10.35,10.35,0,0,1,3.82-6.53l23.51-16.92.1-.08a21.9,21.9,0,0,1,1.85-1.24c2.38-1.5,5.64-3.55,5.81-7.51l48.4,7.09.6-20.54a3.14,3.14,0,0,0-6.28-.18l-.4,13.48-64.23-9.41-1.2-42.63,66.84,1.85a3.14,3.14,0,0,0,6.26-.1l.32-4.9,1.2,1.33a5.68,5.68,0,0,1-2.42,7l-19.26,11.36A9.49,9.49,0,0,0,272.84,239l.09.17a12.34,12.34,0,0,0,16.9,5.3l16.75-9v30a8.36,8.36,0,0,1-3.69,6.94L269,295.36A15,15,0,0,0,262.41,307.37Zm78.16-144.76-9.18,97.89c-.35,3.73-2.62,9.91-4.57,11.49l-43.25,29.36-.14.11a10.85,10.85,0,0,1-9.21,1.92l-3.72-.9a8.7,8.7,0,0,1,2-1.91l33.9-22.87a14.64,14.64,0,0,0,6.45-12.15v-30a3.13,3.13,0,0,0-1.42-2.63l11.92-6.38a11.47,11.47,0,0,0,3.85-16.86l-19.11-26.2a15.25,15.25,0,0,0-12.28-6.25h-8.06a32.19,32.19,0,0,0,18.36-22.33v1.6H335a5.59,5.59,0,0,1,5.56,6.12Z"/><path d="M162.74,97.35a9.43,9.43,0,0,0,7.3.19,9.56,9.56,0,0,0,5.63-12.12,9.74,9.74,0,0,0-5.06-5.55,9.13,9.13,0,0,0-7.22-.15,9.59,9.59,0,0,0-.65,17.63Z"/><path d="M179.79,50.44a5.2,5.2,0,0,1,4.25.22,6,6,0,0,1,3.3,3.42,6.28,6.28,0,0,1-.37,4.59,7.38,7.38,0,0,1-4,3.74c-2.93,1.09-6.55.35-9.15-.83a11.32,11.32,0,0,1-2.65-1.72l-6.2,13.58,13.66,6.23,2-4.44a19.55,19.55,0,0,0,11.84-1.08,17.77,17.77,0,0,0,8.84-8.73A18,18,0,0,0,201.5,51c-1.72-4.22-5.31-9-12.35-12.22s-13-2.71-17.07-1.2a19.8,19.8,0,0,0-10.46,9.61l14.75,6.73A6.65,6.65,0,0,1,179.79,50.44Z"/><rect x="290.85" y="73.55" width="29.04" height="10.96" transform="translate(106.71 324.04) rotate(-65.47)"/><path d="M292.67,107a6.7,6.7,0,0,0,5.23.14,6.39,6.39,0,0,0,3.8-3.56,6.29,6.29,0,0,0,.23-5.12,7,7,0,0,0-3.56-3.95,6.86,6.86,0,0,0-5.7,12.49Z"/><rect x="310.42" y="86.02" width="29.04" height="10.95" transform="translate(55.01 294.21) rotate(-52.63)"/><path d="M314.66,105.07A6.87,6.87,0,0,0,306.32,116a6.77,6.77,0,0,0,5.07,1.3,6.87,6.87,0,0,0,5.87-7.57A7,7,0,0,0,314.66,105.07Z"/><path d="M141,84.76a5.32,5.32,0,0,0-4-1,5,5,0,0,0-3.32,2.12,5.05,5.05,0,0,0-1,3.87,5.13,5.13,0,0,0,2.13,3.37,5.07,5.07,0,0,0,3.87,1A5.13,5.13,0,0,0,142.1,92,5.24,5.24,0,0,0,141,84.76Z"/><path d="M131.77,70.27a3.65,3.65,0,0,1,.49-2.63,2.89,2.89,0,0,1,2-1.19,3.3,3.3,0,0,1,2.54.56,3.44,3.44,0,0,1,1.22,2.2,4,4,0,0,1-.7,2.91,6.92,6.92,0,0,1-4.4,2.39,5.94,5.94,0,0,1-1.73,0l1.31,8,8.08-1.31-.42-2.63a10.66,10.66,0,0,0,5-4.08,9.67,9.67,0,0,0,1.37-6.64,9.78,9.78,0,0,0-4.27-6.58A12.57,12.57,0,0,0,133,59.53a12.06,12.06,0,0,0-8.11,4.63A10.82,10.82,0,0,0,123,71.68Z"/></g></g></svg>