<svg xmlns="http://www.w3.org/2000/svg" viewBox="0 0 394.18 394.18"><defs><style>.cls-1{fill:none;}.cls-2{fill:#2c2c2c;}</style></defs><g id="レイヤー_2" data-name="レイヤー 2"><g id="レイヤー_3" data-name="レイヤー 3"><rect class="cls-1" width="394.18" height="394.18"/><path class="cls-2" d="M265.18,197.27,260,189.1a21.28,21.28,0,0,0-18-9.84H228.13a35.17,35.17,0,1,0-36.9,0H173.89a23.12,23.12,0,0,1-5.8-.74l-66-26.82-.35-.12a17.25,17.25,0,0,0-20.63,10.79c-1.64,4.59-1.44,9,.58,12.73,2.26,4.16,6.7,7.24,12.51,8.67l77.59,30.3.41.12a8,8,0,0,1,6.07,6.54l3.78,29.16a70.73,70.73,0,0,1,.62,15.59l-5.49,76.45a15,15,0,0,0,16.31,15.95l1.17-.11a18.38,18.38,0,0,0,16.67-17l6.07-62.91,13.06,68.64a15.89,15.89,0,0,0,15.35,12.59H246a15.42,15.42,0,0,0,15.15-18.28l-16.51-87.14a21.14,21.14,0,0,1,2.39,1.92,3.21,3.21,0,0,0,.58,1.4,13.39,13.39,0,0,0,5.59,15.5,14.19,14.19,0,0,0,7.61,2.21,14.73,14.73,0,0,0,3.35-.39,14.21,14.21,0,0,0,9-6.58l7.85-13.16a22.84,22.84,0,0,1,7.18,4.86,3.06,3.06,0,0,0,2.2.93,3.21,3.21,0,0,0,.92-.14,3.07,3.07,0,0,0,2.11-2.44l8.38-50.87a3.09,3.09,0,0,0-.83-2.65C292.17,195.31,277.57,192.82,265.18,197.27Zm-84.51-47.92a29,29,0,1,1,29,29A29,29,0,0,1,180.67,149.35Zm48.25,93.5a36.79,36.79,0,0,0-15.15,3.24l7.11-43.17c10.45-6.88,25.52-6.19,34.15,1.44l-7.25,44A33.84,33.84,0,0,0,228.92,242.85Zm26.13,99.08a9.26,9.26,0,0,1-9.1,11h-.07a9.71,9.71,0,0,1-9.38-7.64l-14.56-76.53a5,5,0,0,0-9.9.62l-6.82,70.82v.08a12.25,12.25,0,0,1-11.11,11.37l-1.17.11a8.81,8.81,0,0,1-9.61-9.38l5.5-76.45a76.22,76.22,0,0,0-.67-16.89l-3.77-29.16a14.15,14.15,0,0,0-10.53-11.61L96.25,178l-.4-.12c-4.2-1-7.3-3-8.74-5.67-1.18-2.19-1.25-4.79-.2-7.73a11.06,11.06,0,0,1,13.06-7l66,26.81.36.12a29,29,0,0,0,7.58,1H242a15.13,15.13,0,0,1,12.8,7l4.78,7.45-.18.11c-11-9.95-29.74-10.78-42.72-1.61l-.35.25a3.07,3.07,0,0,0-1.27,2l-8.38,50.87a3.09,3.09,0,0,0,4.82,3l.35-.25a30.47,30.47,0,0,1,25.89-3.93Zm12.74-77.38a8.16,8.16,0,0,1-11.36,2.71,7.24,7.24,0,0,1-2.44-9.69,3,3,0,0,0,.39-1.57,30.77,30.77,0,0,1,20.47-3.29Zm20.34-13.07a33.85,33.85,0,0,0-18.86-5.5,36.79,36.79,0,0,0-15.15,3.24l7.11-43.16c10.44-6.88,25.52-6.2,34.15,1.44Z"/><path class="cls-2" d="M269.33,65.33a12.16,12.16,0,0,1,7.22,15.57,2.69,2.69,0,0,0,.08,2.1,2.79,2.79,0,0,0,1.54,1.42,2.83,2.83,0,0,0,.95.16,2.73,2.73,0,0,0,2.57-1.79,17.63,17.63,0,0,0-10.47-22.6,2.74,2.74,0,1,0-1.89,5.14Z"/><path class="cls-2" d="M240.87,86.26a16,16,0,0,1,.19,11.19l-1.46,4a7,7,0,0,0,2,7.66,11.38,11.38,0,0,0,7.2,12.34,10.72,10.72,0,0,0,3.74.66,11.47,11.47,0,0,0,9.72-5.42,7,7,0,0,0,6.45-4.58l1.47-4a16.13,16.13,0,0,1,7.54-8.5,26.12,26.12,0,1,0-36.81-13.35Zm9.77,30a5.87,5.87,0,0,1-3.67-4.73l9.52,3.49A5.84,5.84,0,0,1,250.64,116.3Zm-4.67-32A20.61,20.61,0,0,1,282.89,66.2a20.59,20.59,0,0,1-7.83,28.6h0a21.91,21.91,0,0,0-8.95,8.92L247,96.7A21.6,21.6,0,0,0,246,84.26Zm16.78,26.81a1.55,1.55,0,0,1-1.16,0l-15.95-5.85a1.52,1.52,0,0,1-.85-.78,1.48,1.48,0,0,1,0-1.15l.52-1.42,18.79,6.89-.52,1.42A1.55,1.55,0,0,1,262.75,111.07Z"/><path class="cls-2" d="M231.44,69.54l4,1.46a2.83,2.83,0,0,0,.94.17,2.75,2.75,0,0,0,2.49-3.89,2.72,2.72,0,0,0-1.54-1.42l-4-1.47a2.74,2.74,0,0,0-1.89,5.15Z"/><path class="cls-2" d="M237.17,58.81a2.73,2.73,0,0,0,3.64,1.33,2.66,2.66,0,0,0,1.42-1.54,2.75,2.75,0,0,0-.08-2.09l-1.79-3.86a2.73,2.73,0,0,0-3.64-1.33A2.73,2.73,0,0,0,235.39,55Z"/><path class="cls-2" d="M227.12,83.13a2.79,2.79,0,0,0,.94.17,2.69,2.69,0,0,0,1.15-.26l3.86-1.79a2.74,2.74,0,0,0-.21-5,2.75,2.75,0,0,0-2.09.08l-3.86,1.79a2.73,2.73,0,0,0-1.33,3.64A2.69,2.69,0,0,0,227.12,83.13Z"/><path class="cls-2" d="M289.91,88.06a2.73,2.73,0,0,0,1.63,3.52l4,1.46a2.61,2.61,0,0,0,1,.17,2.74,2.74,0,0,0,.94-5.31l-4-1.47a2.74,2.74,0,0,0-3.51,1.63Z"/><path class="cls-2" d="M303.28,75.73a2.76,2.76,0,0,0-3.64-1.34l-3.86,1.79a2.79,2.79,0,0,0-1.42,1.54A2.75,2.75,0,0,0,296,81.24a2.84,2.84,0,0,0,.95.17,2.75,2.75,0,0,0,1.15-.26l3.85-1.78a2.71,2.71,0,0,0,1.42-1.55A2.75,2.75,0,0,0,303.28,75.73Z"/><path class="cls-2" d="M290.14,97.21a2.69,2.69,0,0,0-2.1.08,2.74,2.74,0,0,0-1.33,3.64l1.78,3.85A2.72,2.72,0,0,0,290,106.2a2.61,2.61,0,0,0,1,.17,2.73,2.73,0,0,0,2.48-3.89l-1.78-3.86A2.74,2.74,0,0,0,290.14,97.21Z"/></g></g></svg>