<svg xmlns="http://www.w3.org/2000/svg" viewBox="0 0 394.18 394.18"><defs><style>.cls-1{fill:none;}</style></defs><g id="レイヤー_2" data-name="レイヤー 2"><g id="レイヤー_3" data-name="レイヤー 3"><rect class="cls-1" width="394.18" height="394.18"/><path d="M148.44,325.57a8.33,8.33,0,1,0,8.32,8.32A8.33,8.33,0,0,0,148.44,325.57Zm0,11.1a2.78,2.78,0,1,1,2.77-2.78A2.79,2.79,0,0,1,148.44,336.67Z"/><path d="M54.09,325.57a8.33,8.33,0,1,0,8.33,8.32A8.33,8.33,0,0,0,54.09,325.57Zm0,11.1a2.78,2.78,0,1,1,2.78-2.78A2.78,2.78,0,0,1,54.09,336.67Z"/><rect x="76.29" y="308.92" width="5.55" height="5.55"/><rect x="81.84" y="303.37" width="5.55" height="5.55"/><rect x="87.39" y="308.92" width="5.55" height="5.55"/><rect x="92.94" y="303.37" width="5.55" height="5.55"/><rect x="98.49" y="308.92" width="5.55" height="5.55"/><rect x="104.04" y="303.37" width="5.55" height="5.55"/><rect x="109.59" y="308.92" width="5.55" height="5.55"/><rect x="115.14" y="303.37" width="5.55" height="5.55"/><rect x="120.69" y="308.92" width="5.55" height="5.55"/><path d="M312.61,258.11l-13.75,11.37a6,6,0,0,1-3.82,1.37h-2.28a16.27,16.27,0,0,0-1.64-27.36l.16.09h0l-.16-.09-.47-.25-.88-.43-.36-.16c-.4-.17-.8-.31-1.21-.44l-.44-.14c-.39-.11-.78-.22-1.18-.3l-.18-.05c-.46-.09-.93-.16-1.4-.21l-.38,0c-.48,0-1-.07-1.46-.07h0a16.28,16.28,0,0,0-9.61,29.45H266.9a8.77,8.77,0,0,0-1,.06l1.67-5h0l-1.67,5a10.32,10.32,0,0,0-5.61,2.36l-.19.16-11.16,13.23A9.42,9.42,0,0,0,246.36,297l4.85,18,.1.31A7.31,7.31,0,0,0,261.78,319l1.33-.76a9.16,9.16,0,0,0,.88-.61l-1,24.8a7.84,7.84,0,0,0,7.84,8.16h5.6a7.74,7.74,0,0,0,7-4.44,8.15,8.15,0,0,0,7.24,4.44h4.94a8.12,8.12,0,0,0,8.09-8.94L300,304.3a1.94,1.94,0,0,1,0-.24V290.89a2.29,2.29,0,0,1,.84-1.77l22.14-18a8.45,8.45,0,0,0,1.15-12A8.2,8.2,0,0,0,312.61,258.11Zm-22-14.87-.88-.43Zm-1.25-.59a12.26,12.26,0,0,0-1.2-.44A12.26,12.26,0,0,1,289.4,242.65Zm-1.64-.58c-.39-.11-.78-.22-1.18-.3C287,241.85,287.37,242,287.76,242.07Zm-1.36-.35c-.46-.09-.93-.16-1.4-.21C285.47,241.56,285.94,241.63,286.4,241.72Zm-1.78-.25c-.48,0-1-.07-1.46-.07C283.65,241.4,284.14,241.43,284.62,241.47Zm-1.47,5.67a10.57,10.57,0,1,1-10.56,10.57A10.58,10.58,0,0,1,283.15,247.14Zm-18.62,56.71-1.71-4.71-.06-.13a2.66,2.66,0,0,1,.49-2.8l.21-.23,1.07-1.83Zm54.79-37.16-22.14,18a8,8,0,0,0-3,6.23v13.17a7.14,7.14,0,0,0,0,.8L298,342.17a2.39,2.39,0,0,1-2.37,2.63h-4.94a2.38,2.38,0,0,1-2.37-2.23l-1.53-24.37a3.38,3.38,0,0,0-3.41-3.21h0a3.38,3.38,0,0,0-3.41,3.21l-1.54,24.74a2,2,0,0,1-2,1.86h-5.6a2.1,2.1,0,0,1-2.1-2.19l1.5-37h0V290.17a4.69,4.69,0,0,0-8.15-3.17l-.2.22-3.14,5.36a8.41,8.41,0,0,0-1.35,8.58l3.5,9.62.05.13a1.85,1.85,0,0,1-.77,2.31l-1.32.76a1.56,1.56,0,0,1-2.19-.66l-4.85-17.95-.1-.31a3.67,3.67,0,0,1,1.05-4.17l.19-.16,11.13-13.2a4.6,4.6,0,0,1,2.77-.93H295a11.77,11.77,0,0,0,7.49-2.7l13.74-11.36a2.45,2.45,0,0,1,3.42.31,2.7,2.7,0,0,1-.37,3.84Z"/><path d="M243.48,283.74a11.35,11.35,0,0,0-11.36-10.4h-.22a16.31,16.31,0,1,0-20.26,0h-2.31a10.58,10.58,0,0,0-10.18,7.78l-9.09,33.41h0v-8.39a13.89,13.89,0,0,0-13.88-13.87H160.62l-9.41-8.69-16.65-15.37-.45-.41A33.2,33.2,0,0,0,118,259.61v-9a2.78,2.78,0,0,0-2.78-2.78H70.74A2.77,2.77,0,0,0,68,250.65V260a33.2,33.2,0,0,0-19.7,13.85L36,292.27H31.89A13.88,13.88,0,0,0,18,306.14v22.2a8.33,8.33,0,0,0,8.32,8.33h8.55a19.4,19.4,0,0,0,38.4,0h55.94a19.4,19.4,0,0,0,38.41,0h14.09a8.34,8.34,0,0,0,8.33-8.33v-9.17a9,9,0,0,0,1.52,3.1,8.81,8.81,0,0,0,7.07,3.49,9,9,0,0,0,4.06-1l-1.37,18.25a9.51,9.51,0,0,0,9.47,10.46,8.45,8.45,0,0,0,7.92-5.38,9.9,9.9,0,0,0,8.77,5.38h1.87a7.76,7.76,0,0,0,7.75-8.4l-1.37-20a10.23,10.23,0,0,0,3.71.69,7.1,7.1,0,0,0,7.07-7.73ZM221.77,250a10.56,10.56,0,1,1-10.56,10.56A10.57,10.57,0,0,1,221.77,250Zm-91.42,21.86,22.09,20.39H98.55V264.52h13A27.66,27.66,0,0,1,130.35,271.88ZM73.52,253.42h38.91V259c-.3,0-.6,0-.9,0H76c-.83,0-1.65.09-2.46.15ZM93,264.52v27.75H87.45V264.52ZM52.89,276.88A27.69,27.69,0,0,1,76,264.52H81.9v27.75H42.63ZM23.57,306.14a8.31,8.31,0,0,1,5.55-7.81v7.81A8.32,8.32,0,0,1,23.57,314Zm30.52,41.63A13.88,13.88,0,1,1,68,333.89,13.89,13.89,0,0,1,54.09,347.77Zm94.35,0a13.88,13.88,0,1,1,13.87-13.88A13.9,13.9,0,0,1,148.44,347.77Zm36.07-19.43a2.79,2.79,0,0,1-2.78,2.78H167.64a19.4,19.4,0,0,0-38.41,0H73.29a19.4,19.4,0,0,0-38.4,0H26.34a2.78,2.78,0,0,1-2.77-2.78v-8.6a13.91,13.91,0,0,0,11.1-13.6v-8.32H167.86v5.55a11.11,11.11,0,0,0,11.1,11.1h5.55Zm0-19.42H179a5.56,5.56,0,0,1-5.55-5.55v-5.55h2.77a8.33,8.33,0,0,1,8.33,8.32Zm56,10.66a1.36,1.36,0,0,1-1,.44,4.62,4.62,0,0,1-4.25-2.87l-.58-8.33-.4,0-.91-9.89a2.87,2.87,0,1,0-5.72.52l1.57,17.18,0,.11a9.7,9.7,0,0,0,.34,1.55l1.86,27.24a2,2,0,0,1-2,2.21H227.5a4.12,4.12,0,0,1-4.08-3.69l0-24.63v-.12a3.39,3.39,0,0,0-3.4-3.15h0a3.4,3.4,0,0,0-3.41,3.07l-3.06,25.89v.09a2.77,2.77,0,0,1-2.76,2.54,3.76,3.76,0,0,1-2.8-1.24,3.81,3.81,0,0,1-.95-3l2.56-33.82L212.09,299a2.87,2.87,0,0,0-5.6-1.28l-2.23,9.69-.23,0-.11,1.51-2,8.66a3.41,3.41,0,0,1-3.28,2.49,3.16,3.16,0,0,1-3.05-4l9.1-33.41a4.8,4.8,0,0,1,4.63-3.54h22.79a5.63,5.63,0,0,1,5.64,5.16l3.05,34.29A1.39,1.39,0,0,1,240.46,319.58Z"/><polygon points="306.69 223.64 325.56 232.52 325.56 232.52 306.69 223.64"/><path d="M367.89,284h-1l-.36-.9-36.17-88.42-.11-.26v-20.3a2.86,2.86,0,0,0-.12-.82l-.09-.26,0-.27.09-1.38H321.7l-.12-1.31-3-33,0-.36-.12-1.36L313.6,82.3V65.69A2.74,2.74,0,0,0,310.86,63h-5.6V42.1h-5.47V63h-5.61a2.73,2.73,0,0,0-2.73,2.73V82.3L287,131.12l-.51,5.6-.12,1.42-2.91,32-.12,1.31H277.5a2.74,2.74,0,0,0-2.74,2.73v20.3l-.1.26-33.22,81.2a12.78,12.78,0,0,1,3.29,6.41l.11-.27,6.83-16.69.36-.89h14.72a17.64,17.64,0,0,1-1.3-5.47H254.27l.81-2,6.82-16.68.37-.89h22.08l-.61.54a17.69,17.69,0,0,1,7.57,2l.32-.15.86-.37.11-.05.32-.13c.47-.19.89-.34,1.29-.48a25.73,25.73,0,0,1,2.59-.72l.1,0c.41-.09.79-.17,1.16-.23l.26,0,.12,0,.89-.13.36,0h.25c.22,0,.44-.05.66-.06l.47,0h.28l.53,0h1.27l.71,0h.22l.34,0,.89.08h.13l.25,0q.53.06,1.05.15h.07l.15,0a25.53,25.53,0,0,1,3.85,1c.42.14.85.29,1.33.48l.27.11.11,0,.92.4.45.21c.29.14.57.28.84.43l.11,0,.32.17,1,.58.07,0,.16.09c.4.25.81.52,1.2.79l.1.08,0,0c.36.25.7.5,1,.75l.15.12.07.06.92.77.18.16c.35.31.66.61,1,.91l.06.07a26.19,26.19,0,0,1,3.68,4.63l.07.11,0,0c.21.34.41.7.62,1.07l.15.28c.18.32.34.66.5,1l.06.11a1.89,1.89,0,0,1,.11.25c.15.32.29.65.43,1l0,.13a1.89,1.89,0,0,1,.11.25c.17.43.33.86.48,1.3l0,.06,8.26,24.78.63,1.89H329v5.47h47.18V284Zm-38.24-76.68.57,1.4L338.11,228l1.4,3.42-3.34-1.58-24.45-11.5-2.76-1.3,2.76-1.3L328.28,208Zm-4.9-9.61h1l.37.89,1,2.38.52,1.26-1.24.58-19,9-2.05,1v-15h19.49Zm-30.09-90.45,1.9-20.85.12-1.31h11.69l.12,1.31,1.89,20.85.15,1.57h-16ZM292,136.46l1.9-20.85.11-1.31h17l.12,1.31,1.9,20.85.14,1.57H291.87Zm-3,33.37,2.25-25,.12-1.31h22.31l.12,1.31,2.27,25,.14,1.57H288.86Zm-23.46,61.61,1.39-3.42,5.48-13.38,2.42-5.91.57-1.4,1.37.64,16.56,7.8,2.76,1.3-2.76,1.3-24.45,11.5Zm34.25-7.8V234H273.05l5.81-2.74,16.53-7.78,2.35-1.1,2.05-1Zm0-24.48v13.6l-2.05-1-19-8.95-1.23-.58L278,201l.74-1.8.24-.58.36-.89h20.46Zm-18.12-6.91h-1.44V176.87H317.7l-.2,1.61L315.94,191l-.16,1.26H281.67Zm25,41.71h-1.43V221.38l2.05,1,18.86,8.88L332,234H306.69Zm27,25-.33-1-.8-2.39a31.59,31.59,0,0,0-9-13.67l-2.83-2.51h22.08l.36.89.8,2L350,257l.81,2H333.69Zm25.18,25H342l-.33-1-5.56-16.69-.63-1.89H353l.37.89L360.2,282l.81,2Z"/><path d="M249.27,284H245l.44,5a11,11,0,0,1,2.49-3.34Z"/><path d="M267.88,269.42h2a19,19,0,0,1-1.37-1.77Z"/><polygon points="307.06 86.55 307.06 86.55 308.95 107.4 307.06 86.55"/><polygon points="312.37 144.94 312.37 144.94 314.64 169.96 312.37 144.94"/><rect x="310.66" y="115.7" height="20.94" transform="translate(-10.16 28.68) rotate(-5.2)"/><polygon points="268.26 228.57 292.72 217.07 268.26 228.57 268.26 228.57"/><rect x="315.3" y="178.25" height="12.61"/><path d="M279.57,241.8h0c.33-.32.65-.64,1-.94C280.22,241.16,279.9,241.48,279.57,241.8Z"/><path d="M306.72,241.22c.61.11,1.21.24,1.82.39-.61-.15-1.21-.28-1.82-.39l-.22,0-1-.14,1,.14Z"/><path d="M311.61,242.6c-.41-.16-.83-.32-1.25-.46.42.14.84.3,1.25.46l.36.15Z"/><path d="M303.85,240.9l.47,0,.83.08.37,0-.37,0-.83-.08-.47,0-.74,0h0Z"/><path d="M301.91,240.87h0Z"/><path d="M324.35,254c.17.3.33.62.48.93.05.12.11.23.16.34-.05-.11-.11-.22-.16-.34-.15-.31-.31-.63-.48-.93,0-.09-.09-.18-.14-.27-.19-.34-.38-.67-.59-1l-.09-.15.09.15c.21.34.4.67.59,1C324.26,253.77,324.31,253.86,324.35,254Z"/><path d="M314.47,243.94l-.41-.21-.79-.4-.43-.21.43.21.79.4Z"/><path d="M315.61,244.61c.38.24.76.49,1.13.75l.14.1,1,.71.2.17c.3.24.59.48.87.73l.17.15c.31.28.62.57.91.86l.06.06a24.57,24.57,0,0,1,1.86,2.09,24.57,24.57,0,0,0-1.86-2.09l-.06-.06c-.29-.29-.6-.58-.91-.86l-.17-.15c-.28-.25-.57-.49-.87-.73l-.2-.17-1-.71-.14-.1c-.37-.26-.75-.51-1.13-.75l-.21-.13-.93-.54.93.54Z"/><path d="M285.06,136.59l.51-5.6L290,82.17V65.69a4.17,4.17,0,0,1,4.17-4.17h0A4.17,4.17,0,0,0,290,65.69V82.17L285.57,131l-.51,5.6-.12,1.42L282,170l2.91-32Z"/><path d="M275.88,170.29A4.18,4.18,0,0,0,274,171.8,4.18,4.18,0,0,1,275.88,170.29Z"/></g></g></svg>