<svg xmlns="http://www.w3.org/2000/svg" viewBox="0 0 67.47 67.47"><defs><style>.cls-1{fill:#fff;}</style></defs><g id="レイヤー_2" data-name="レイヤー 2"><g id="レイヤー_1-2" data-name="レイヤー 1"><path class="cls-1" d="M61.47,14.52h0a2.28,2.28,0,1,0,0-4.55H56.66a2.28,2.28,0,0,0-2.28,2.28V17.1a2.28,2.28,0,0,0,4.17,1.27A29.18,29.18,0,1,1,33.74,4.56a30.11,30.11,0,0,1,3.56.21l.27,0a2.27,2.27,0,0,0,2.26-2,2.26,2.26,0,0,0-.46-1.68A2.3,2.3,0,0,0,37.85.25a33.77,33.77,0,0,0-28,9.63A33.74,33.74,0,0,0,33.74,67.47,33.73,33.73,0,0,0,67.47,33.74,33.92,33.92,0,0,0,61.47,14.52ZM30.66,63.76a26.77,26.77,0,0,1-3-.46A26.77,26.77,0,0,0,30.66,63.76Zm-7.29-1.68a28.92,28.92,0,0,1-4-1.81A28.92,28.92,0,0,0,23.37,62.08Zm-9.92-6c.72.65,1.47,1.27,2.24,1.84S17.27,59,18.1,59.54c-.83-.5-1.63-1-2.41-1.63s-1.52-1.19-2.24-1.84-1.39-1.33-2-2C12.06,54.74,12.74,55.42,13.45,56.07Zm-6.25-8A28.52,28.52,0,0,0,8.72,50.6,28.52,28.52,0,0,1,7.2,48.11a29.18,29.18,0,0,1-1.27-2.64A29.18,29.18,0,0,0,7.2,48.11ZM37.42,3.78a1.46,1.46,0,0,0,.36,0,1.3,1.3,0,0,1-.21,0ZM38,3.71a1.26,1.26,0,0,0,.26-.13A1.05,1.05,0,0,1,38,3.71Zm.41-.22a1,1,0,0,0,.21-.24A1,1,0,0,1,38.38,3.49Zm.31-.36a1.24,1.24,0,0,0,.15-.47A1.24,1.24,0,0,1,38.69,3.13Z"/><path class="cls-1" d="M12.25,20.16A25.43,25.43,0,0,0,15.77,51.7,25.41,25.41,0,1,0,36.43,8.47a26.38,26.38,0,0,0-2.67-.14,25.41,25.41,0,0,0-13.56,3.9,2.28,2.28,0,0,0,1.22,4.2,2.25,2.25,0,0,0,1.21-.35A20.85,20.85,0,1,1,16.1,22.6a2.28,2.28,0,1,0-3.85-2.44Zm2.07,0a1.6,1.6,0,0,0-.38,0l.24,0Zm-.43,0a1.27,1.27,0,0,0-.4.17A1.27,1.27,0,0,1,13.89,20.14Zm-.48.23a1.09,1.09,0,0,0-.31.33A1.09,1.09,0,0,1,13.41,20.37Zm21.09-11c.61,0,1.22.05,1.82.11C35.72,9.4,35.11,9.37,34.5,9.35Zm3.35,2.89C37.24,12.12,36.62,12,36,12,36.62,12,37.24,12.12,37.85,12.24Zm-2.49-.32c-.44,0-.89-.05-1.33-.06ZM34.1,9.34c-.48,0-1,0-1.44,0,.37,0,.73,0,1.1,0ZM22.38,12.13c-.56.29-1.11.61-1.64.94C21.27,12.74,21.82,12.42,22.38,12.13Zm9.77-2.74c-.63,0-1.26.1-1.88.19C30.89,9.49,31.52,9.43,32.15,9.39Zm-2.27.26c-.5.08-1,.17-1.47.28C28.89,9.82,29.38,9.73,29.88,9.65Zm-2.11.44-1.2.33Zm-1.88.55-1.14.41Zm-1.79.68c-.4.17-.78.35-1.17.54C23.32,11.67,23.7,11.49,24.1,11.32Zm-3.76,3.52a1.18,1.18,0,0,0,.31.32A1.18,1.18,0,0,1,20.34,14.84Zm.78.56a1.53,1.53,0,0,1-.39-.18A1.53,1.53,0,0,0,21.12,15.4Zm.05,0a1,1,0,0,0,.39,0l-.14,0A1.07,1.07,0,0,1,21.17,15.4Zm.5,0a1.14,1.14,0,0,0,.43-.17h0A1.14,1.14,0,0,1,21.67,15.4ZM33,11.87l-.54,0Zm-2.12.18h0Zm-1.75.31-.52.13Zm-1.65.43-.6.2Zm-1.64.58-.6.24Zm-1.67.74-.51.25Zm23.51,2.78c.53.44,1,.9,1.54,1.39C48.69,17.79,48.18,17.33,47.65,16.89ZM38,12.26c.64.12,1.28.29,1.91.47C39.23,12.55,38.59,12.38,38,12.26Zm2.51.67c.43.14.86.29,1.28.45C41.32,13.22,40.89,13.07,40.46,12.93Zm2,.75c.39.17.76.34,1.14.54C43.19,14,42.82,13.85,42.43,13.68Zm1.83.91c.37.2.73.42,1.09.64C45,15,44.63,14.79,44.26,14.59ZM46,15.65c.38.26.75.54,1.12.83C46.75,16.19,46.38,15.91,46,15.65ZM15.43,21.1a1.27,1.27,0,0,1-.17,1,1.27,1.27,0,0,0,.17-1,1.31,1.31,0,0,0-.57-.8,1.14,1.14,0,0,0-.42-.16,1.14,1.14,0,0,1,.42.16A1.31,1.31,0,0,1,15.43,21.1Z"/><path class="cls-1" d="M50.35,36h1.58a2.28,2.28,0,0,0,0-4.56H50.35a2.28,2.28,0,1,0,0,4.56Z"/><path class="cls-1" d="M17.12,31.44H15.55a2.28,2.28,0,1,0,0,4.55h1.57a2.28,2.28,0,1,0,0-4.55Zm0,1a1.27,1.27,0,0,1,1.18.78,1.27,1.27,0,0,0-1.18-.78Zm0,2.55h0a1.27,1.27,0,0,0,1.18-.78A1.27,1.27,0,0,1,17.12,35Z"/><path class="cls-1" d="M33.76,19.4A2.29,2.29,0,0,0,36,17.12V15.55a2.28,2.28,0,0,0-4.56,0v1.57A2.28,2.28,0,0,0,33.76,19.4Z"/><path class="cls-1" d="M31.44,50.35v1.58a2.28,2.28,0,0,0,4.55,0V50.35a2.28,2.28,0,1,0-4.55,0Z"/><path class="cls-1" d="M26.43,24.15A2.28,2.28,0,0,0,24.82,28l3.84,3.84a5.65,5.65,0,0,0-.33,1.86,5.41,5.41,0,1,0,10.48-1.86l8.26-8.25a2.28,2.28,0,0,0-3.23-3.22l-8.25,8.25a5.55,5.55,0,0,0-1.85-.33,5.65,5.65,0,0,0-1.86.33L28,24.82A2.26,2.26,0,0,0,26.43,24.15Zm0,1h0a1.28,1.28,0,0,0-.48.09A1.28,1.28,0,0,1,26.43,25.15Zm7.31,9.43a.85.85,0,1,1,.84-.84A.85.85,0,0,1,33.74,34.58Z"/><path class="cls-1" d="M19,15.77A2.28,2.28,0,1,0,15.77,19,2.28,2.28,0,1,0,19,15.77Zm-.71.71a1.25,1.25,0,0,1,.28.41,1.25,1.25,0,0,0-.28-.41,1.15,1.15,0,0,0-.41-.28A1.15,1.15,0,0,1,18.28,16.48Zm0,1.8a1.15,1.15,0,0,1-.41.28,1.34,1.34,0,0,0,.69-.69A1.15,1.15,0,0,1,18.28,18.28Z"/><path class="cls-1" d="M42.59,5.82a2.3,2.3,0,0,0,1.61-.67,2.27,2.27,0,0,0,0-3.22,2.28,2.28,0,0,0-3.89,1.61,2.29,2.29,0,0,0,2.28,2.28Z"/></g></g></svg>