<svg xmlns="http://www.w3.org/2000/svg" viewBox="0 0 46.89 57.16"><defs><style>.cls-1{fill:#fff;}</style></defs><g id="レイヤー_2" data-name="レイヤー 2"><g id="レイヤー_1-2" data-name="レイヤー 1"><path class="cls-1" d="M24,4.58H3.35V1.67A1.68,1.68,0,0,0,0,1.67V55.49a1.68,1.68,0,0,0,3.35,0V30.25H24a1.68,1.68,0,0,0,1.68-1.67V6.25A1.68,1.68,0,0,0,24,4.58Z"/><path class="cls-1" d="M46.77,33.54,42.55,23l4.22-10.54a1.67,1.67,0,0,0-1.56-2.3H29V28.58a5,5,0,0,1-5,5H16.75v.56a1.68,1.68,0,0,0,1.67,1.68H45.21a1.68,1.68,0,0,0,1.56-2.3Z"/></g></g></svg>