<svg xmlns="http://www.w3.org/2000/svg" viewBox="0 0 34.37 34.37"><defs><style>.cls-1{fill:#302722;}.cls-2{fill:#fff;}</style></defs><g id="レイヤー_2" data-name="レイヤー 2"><g id="Graphics"><path class="cls-1" d="M3.07,3.07V31.3H31.3V3.07ZM4.81,4.8H29.57L4.81,29.57h0Z"/><path class="cls-1" d="M34.37,34.37H0V0H34.37ZM1.73,32.64H32.64V1.73H1.73Z"/><path class="cls-1" d="M11.28,14.56s-3.51,3.16-7.34,6.67v1.39C7.71,18.52,11.28,14.56,11.28,14.56Z"/><path class="cls-1" d="M13.41,16.69s-4.92,4.44-9.47,8.64v1.73C8.37,22.29,13.41,16.69,13.41,16.69Z"/><path class="cls-1" d="M3.94,13.68,7,10.29s-1.25,1.12-3.07,2.78Z"/><path class="cls-1" d="M3.94,18.15c2.88-3.15,5.2-5.73,5.2-5.73s-2.3,2.07-5.2,4.72Z"/><path class="cls-1" d="M12.43,9.14S15,6.82,18.16,3.94h-1C14.49,6.84,12.43,9.14,12.43,9.14Z"/><path class="cls-1" d="M25.34,3.94c-4.21,4.54-8.65,9.47-8.65,9.47s5.61-5,10.37-9.47Z"/><path class="cls-1" d="M10.29,7l3.39-3.07h-.61Z"/><path class="cls-1" d="M21.24,3.94c-3.52,3.83-6.68,7.34-6.68,7.34s4-3.57,8.06-7.34Z"/><polygon class="cls-1" points="5.51 3.94 3.94 3.94 3.94 3.94 3.94 5.51 17.19 17.19 17.19 17.19 5.51 3.94"/><path class="cls-2" d="M22,25.23s-2.08,1.87-4.78,4.34H18C20.28,27.09,22,25.23,22,25.23Z"/><path class="cls-2" d="M24.08,27.37l-2.43,2.2h.44Z"/><path class="cls-2" d="M9.84,29.57C13.79,25.28,17.68,21,17.68,21s-4.9,4.41-9.43,8.61Z"/><path class="cls-2" d="M21,17.68s4.33-3.89,8.61-7.84V8.25C25.37,12.78,21,17.68,21,17.68Z"/><path class="cls-2" d="M29.57,12.7c-3.43,3.74-6.47,7.11-6.47,7.11s3-2.69,6.47-5.88Z"/><path class="cls-2" d="M19.81,23.1s-3.37,3-7.11,6.47h1.23C17.12,26.09,19.81,23.1,19.81,23.1Z"/><path class="cls-2" d="M27.37,24.08l2.2-2v-.44Z"/><path class="cls-2" d="M25.23,22s1.86-1.67,4.34-3.93v-.85C27.1,19.87,25.23,22,25.23,22Z"/><polygon class="cls-2" points="28.34 29.57 29.57 29.57 29.57 28.33 17.19 17.19 28.34 29.57"/></g></g></svg>