<svg xmlns="http://www.w3.org/2000/svg" viewBox="0 0 280.05 47.44"><defs><style>.cls-1{fill:#473015;}</style></defs><g id="レイヤー_2" data-name="レイヤー 2"><g id="objects"><path class="cls-1" d="M1.42,46.7h14V29.17h-14ZM6.83,34.58H10v6.71H6.83Zm26.46,4V29.68l-2,4H25.15v3l2.05,4.47H46.38V46.7H24.2l-2.28-4.85-5.59,5.59V39.69l3.36-3.3V24.56H16.33V19.1h8.82V33.57l6.69-13.22H25.61V14.83h7.68V12.67H28.18L26,4.65h5.69l1.6,6.08v-9h5.46v8.65l1.61-5.74H46l-2.18,8h-5v2.16h7.74v5.52H40.28L47.4,33.72H41.22l-2.47-4.6v9.5Zm-18.5-18.1H2.11V14.89H14.79Zm3.87-6.15-1.79-7.5h5.68l1.65,7.5Zm-1.82-1H0V7.89H16.84ZM2.11,21.89H14.79v5.57H2.11ZM13.39,6.58H2.62V0ZM68.52,1.8h-14l-6,12.12h2.95l-.85,32.83h5.46l.28-13h9.3V46.7h5.46V10.05H64.87Zm-10,26.52H56.63l.08-3.7h1.84Zm0-9.11h-1.7l.08-3.75h1.62ZM59,10.05H56.41L57.8,7.26h2.45Zm6.67,18.27H64v-3.7h1.71Zm0-12.86v3.75H64V15.46ZM87.17,33.33H96V39H87.17V46.7H81.54V39H72.66V33.33h8.88V28.77H78.21l-1.08,3.59H71.25L75.14,19.9H81l-1,3.3h1.55V18.25h5.63V23.2h7.17v5.57H87.17ZM77.11,7.38H72V1.8H95.06L94.13,19H88.49l.63-11.6H82.85L80.17,18.19H74.38Zm44.23,16.44h18V30H121.8l1.36,16.73h-6.09L115.71,30H96.93V23.82h18.31l-.73-9.27H97.78V8.4h16.27l-.44-6.6h6.09l.44,6.6h16.62v6.15H120.65ZM158,14.94,162.12.78h6.39l-1.2,3.87h18.23v6h-20l-1.31,4.26Zm27.74,8.26L180,31.09l5.78,15.61h-6.53l-9.05-24.57V46.7h-6.08V25.13h-5.87l-.49,21.57h-5.91l.63-25.21h-3.59L146,46.7h-5.92L143.49,17V10.85h-3.93V5h6.6L152.08.78V5h6.6v5.86h-9.34v4.72h9.13l-.21,8.27.05,0,12.88-11.63h9l-5.49,5,2.88,7.62,1.11-1.59ZM231,7.83H206.36v-6H231Zm-39.29,8h-7.25L194,1.8h7.38Zm12.09-1h28.74V21H222.8V46.7h-6V21h-13ZM196,13h7.32l-4.66,6.86V46.7h-6.09v-18l-.59.87h-7.32Zm84,27.71v6h-28.5v-6h11.26V23h-8.65v-6h8.65V1.8h6V16.94h8.59v6h-8.59v17.7Zm-25-14.17h-8.71V46.7h-6V31l-1.17,2.19h-6.91l11.52-20H233.73v-6h6.64l6-5.86V7.21h7.54l-6.1,10.9Z"/></g></g></svg>