<svg xmlns="http://www.w3.org/2000/svg" viewBox="0 0 65.85 65.85"><defs><style>.cls-1{fill:#3d2f1f;}</style></defs><g id="レイヤー_2" data-name="レイヤー 2"><g id="Graphics"><path class="cls-1" d="M5.38,0A5.38,5.38,0,0,0,0,5.38V65.85c3.12,0,6.41-3.54,6.41-12.52C6.41,44.68,8.49,41,10.9,37a10.67,10.67,0,0,0,1.53-5.25,5.28,5.28,0,0,1-2.77.81A3.08,3.08,0,0,1,6.41,29.2V22.93A12.2,12.2,0,0,0,23,6.41h6.22a3.08,3.08,0,0,1,3.31,3.25,5.33,5.33,0,0,1-.81,2.77,10.78,10.78,0,0,0,5.26-1.54C41,8.48,44.66,6.4,53.32,6.4c9,0,12.53-3.28,12.53-6.4Zm9.48,14.84a3.75,3.75,0,1,1-5.3-5.3,3.75,3.75,0,0,1,5.3,5.3Z"/><path class="cls-1" d="M13.6,10a2.55,2.55,0,0,1-3.53,3.52,2.64,2.64,0,0,0,.34.41,2.55,2.55,0,0,0,3.6-3.6A2.47,2.47,0,0,0,13.6,10Z"/></g></g></svg>