<svg xmlns="http://www.w3.org/2000/svg" viewBox="0 0 47.74 174.8"><defs><style>.cls-1{fill:#fff;}</style></defs><g id="レイヤー_2" data-name="レイヤー 2"><g id="Layer_1" data-name="Layer 1"><path class="cls-1" d="M4.28.16A26.29,26.29,0,0,1,.5,6.47a.26.26,0,0,0-.08.21.31.31,0,0,0,.11.2c3.38,2.67,3.52,8.3,3.68,14.26,0,.56,0,1.12,0,1.67.09,3.19.14,6.62.14,10.5,0,5.74-.1,11.72-.2,17.51S4,62.61,4,68.37c0,5.25.09,9.79.27,13.87A5.13,5.13,0,0,1,3.1,83.62a4.61,4.61,0,0,0-1.83,3.79,5.57,5.57,0,0,0,1.5,3A7.31,7.31,0,0,1,4.26,93a13.33,13.33,0,0,1-.13,3.8,35.33,35.33,0,0,0-.31,4.06V101c0,2.57.06,5.57.1,8.84.08,7.41.18,15.81.18,23.83,0,7.67-.09,13.53-.27,17.89-.06,1.17-.06,2.43-.06,3.76,0,3.3,0,6.72-.77,8.47a5.75,5.75,0,0,1-1.49,1.74c-.75.69-1.47,1.34-1.51,2.18H0a.28.28,0,0,0,.13.24c1,.67,1.51,1.93,2,3.26a6.68,6.68,0,0,0,2.24,3.54.31.31,0,0,0,.23,0,.28.28,0,0,0,.18-.14c.28-.59.55-1.19.82-1.79.89-2,1.81-4,3.36-5.35a.28.28,0,0,0,.09-.27.27.27,0,0,0-.19-.21C6.46,166.2,6,164.6,6,162.43c0-.55,0-1.11.06-1.71s.07-1.27.07-1.92c0-6.45,0-13.5-.09-21C6,129.58,5.9,121,5.9,113c0-8.71.06-15.64.18-21.19,1.5-1,3.06-2.27,3.06-5a9.52,9.52,0,0,0-.08-1.14,3.21,3.21,0,0,0-1.81-2c-.79-.47-1.46-.86-1.58-1.81,0-1.26-.07-2.55-.07-3.94,0-4.57.24-9.16.51-14s.53-9.84.53-14.78c0-2,0-3.75-.12-5.5a12.46,12.46,0,0,0-.44-2.39A10,10,0,0,1,5.67,39c-.08-2.91.07-5.89.23-9.05.12-2.59.26-5.27.26-7.91,0-1.07,0-2.06-.07-3s-.15-1.67-.26-2.44a11.72,11.72,0,0,1-.17-3C6,10.91,7.72,8.79,9.42,6.84a.28.28,0,0,0,.07-.23.28.28,0,0,0-.15-.2A6.94,6.94,0,0,1,6.83,3.15,8.79,8.79,0,0,0,4.71.06a.29.29,0,0,0-.24,0A.29.29,0,0,0,4.28.16Z"/><path class="cls-1" d="M9.8,24a.53.53,0,0,0,0,.12,36,36,0,0,1-.35,3.7,47,47,0,0,0-.5,5.92v.16c0,3,0,6.52,0,10.28,0,3.19-.05,6.5-.05,9.71,0,7.64.17,12.64.52,15.74.4,3.49,2.77,5.2,4.9,5.08,1.91-.12,3.84-1.74,3.74-5.12,0-1.77-.72-3.75-1.91-4.11-.78-.23-1.59.24-2.43,1.4a.29.29,0,0,0,0,.27c.23.59.92.63,1.53.65.82,0,1.07.12,1.07.49a1.54,1.54,0,0,1-.06.38.41.41,0,0,0,0,.11c.37,2.58-.47,4-2.66,4.34-1.53-.67-2.44-2.55-2.44-5s1.08-5.45,2.89-5.86a3.68,3.68,0,0,1,3,.59,7.39,7.39,0,0,1,2.56,5.11,8.84,8.84,0,0,1,0,.91,21.69,21.69,0,0,1-3,9.95,8.4,8.4,0,0,1-2.13,2,6,6,0,0,0-2.09,2.16c-1.28.16-2.79.41-3.05,1.91a.31.31,0,0,0,.09.26.3.3,0,0,0,.26.07c8.1-1.84,11.73-9.75,11.73-16.76A20.8,20.8,0,0,0,21,64c-.79-3.62-2.55-7.38-4.42-11.36-2.86-6.09-5.83-12.39-5.83-19.21h0a22,22,0,0,1,1.21-7.24,2.35,2.35,0,0,1,.74.84,2.14,2.14,0,0,0,2.55,1.18.26.26,0,0,0,.2-.15c.2-.41.67-.63,1.47-.69a.28.28,0,0,0,.24-.18,5.21,5.21,0,0,0,.36-1.83,3.67,3.67,0,0,0-3-3.66A4.12,4.12,0,0,0,9.8,24Z"/><path class="cls-1" d="M38.29,81.73a5.2,5.2,0,0,1-1.92,1.54,9.48,9.48,0,0,0-1.39.91,25.58,25.58,0,0,1-2.61.77c-1.9.49-3.87,1-5.09,2.25a.32.32,0,0,0-.08.2.34.34,0,0,0,0,.1.3.3,0,0,0,.24.18c5.19.51,8.51,2.93,11.31,5.46a.3.3,0,0,0,.27.06.29.29,0,0,0,.2-.19c1-3.08,3.63-4.41,8.2-4.05a.29.29,0,0,0,.22-.07.33.33,0,0,0,.09-.21V87a.29.29,0,0,0-.17-.26,11.6,11.6,0,0,0-5.48-.89,11.78,11.78,0,0,0-3.41-4.19.26.26,0,0,0-.21,0A.29.29,0,0,0,38.29,81.73Z"/><path class="cls-1" d="M25.12,57.5a.26.26,0,0,0,0,.24,22,22,0,0,1,1.07,6.91c0,5.72-2,11.6-5.27,15.34a14.53,14.53,0,0,1-5.3,3.39,14.32,14.32,0,0,0-5.33,3.41.33.33,0,0,0-.06.19v0a.26.26,0,0,0,.1.19c1.39,1.17,3.2,1,4.79.94a11.2,11.2,0,0,1,2.16,0,22.91,22.91,0,0,1,18,12.17.28.28,0,0,0,.24.15.27.27,0,0,0,.26-.13c.22-.36.47-.71.72-1a8.47,8.47,0,0,0,1.87-4.17.28.28,0,0,0-.07-.21,20.65,20.65,0,0,0-6.46-5.17,21.27,21.27,0,0,0-3.37-1.27,11.43,11.43,0,0,1-3.78-1.68c6.6-1,11.06-3.49,13.64-7.7a.29.29,0,0,0,0-.33,6.08,6.08,0,0,1-.85-1.67c-.44-1.15-.9-2.34-2.27-2.67a.28.28,0,0,0-.33.16c-3.14,7.22-11.14,11.58-20.64,11.38a27.3,27.3,0,0,0,18.2-18.41.31.31,0,0,0,0-.19,7.3,7.3,0,0,0-1.89-2.41,10.34,10.34,0,0,1-2-2.3,9,9,0,0,1-.73-2.08c-.41-1.56-.88-3.32-2.52-3.16A.3.3,0,0,0,25.12,57.5Z"/><path class="cls-1" d="M20.8,105.81c0-7.13-3.82-12.85-11-16.53a.28.28,0,0,0-.22,0,.3.3,0,0,0-.17.16,1.56,1.56,0,0,0-.13.61c0,1,1,1.44,1.89,1.81a4.24,4.24,0,0,1,.87.46l.7.56a20.14,20.14,0,0,1,2.67,2.38c1.36,1.58,3.41,7,3.41,11.64,0,2.48-.63,5.49-3.65,5.74a3.27,3.27,0,0,1-2.56-.94,7.24,7.24,0,0,1-2-5.14c0-2.29,1.07-4.74,4.08-4.83a3.55,3.55,0,0,1,1.55,2.93,3.43,3.43,0,0,1-.05.56,2.11,2.11,0,0,1-1.42,1.58,2.29,2.29,0,0,0-1.56,1.84.31.31,0,0,0,.07.21.23.23,0,0,0,.19.1,3.72,3.72,0,0,0,3-.83,4.07,4.07,0,0,0,1.19-3.1,6.42,6.42,0,0,0-1.94-4.64,3.42,3.42,0,0,0-2.7-.92c-2.69.32-3.91,5.18-4.07,7.49-.08,1.07-.12,2.22-.12,3.5,0,2.49.14,5.06.28,7.55s.26,4.57.26,6.6v.22c0,3-.24,6.13-.46,9.21s-.43,6.17-.43,8.94a28.13,28.13,0,0,0,.47,5.7c.57,2.73,3.13,5.47,5,5.33,1.69-.13,3.18-2.57,3.18-4.41a2.4,2.4,0,0,0-1.85-2.52c-2.25-.62-2.74.33-3.25,1.34a7.14,7.14,0,0,1-.53.91,25.21,25.21,0,0,1-1.16-7.62h0a40.59,40.59,0,0,1,.47-5.79c.64-4.39,2.77-8.89,4.83-13.24a62.12,62.12,0,0,0,4.52-11.38A23,23,0,0,0,20.8,105.81Z"/><path class="cls-1" d="M29,100c-4.06-6.12-11.47-11-17.63-11.6a.28.28,0,0,0-.31.22v.06a.28.28,0,0,0,.2.27c.18,0,.28.19.23.54a.28.28,0,0,0,.2.31c8.34,2.45,14.23,10.37,14.67,19.71a15.22,15.22,0,0,1-.5,3.75,16.19,16.19,0,0,0-.52,3.48,5.49,5.49,0,0,0,.63,2.67.28.28,0,0,0,.25.15.29.29,0,0,0,.25-.15c.61-1.16,1-2.17,1.46-3.14.35-.82.68-1.6,1.09-2.39A14.8,14.8,0,0,1,30.25,112,9.88,9.88,0,0,0,32,108.71a6.87,6.87,0,0,0,.16-1.42c0-2.51-1.47-4.73-3-7.07Z"/></g></g></svg>