<svg xmlns="http://www.w3.org/2000/svg" xmlns:xlink="http://www.w3.org/1999/xlink" viewBox="0 0 379.77 104.33"><defs><style>.cls-1{isolation:isolate;}.cls-2,.cls-4{fill:#231815;}.cls-3{fill:url(#名称未設定グラデーション_147);}.cls-10,.cls-11,.cls-12,.cls-4,.cls-5,.cls-6,.cls-7,.cls-8,.cls-9{fill-rule:evenodd;}.cls-5{fill:#ed6c00;}.cls-6{fill:#fdd000;}.cls-7{fill:#bf0008;}.cls-8{fill:#f39800;}.cls-9{fill:#fff;}.cls-10,.cls-12{fill:#b5b5b6;}.cls-11{fill:#727171;}.cls-12{mix-blend-mode:multiply;}</style><linearGradient id="名称未設定グラデーション_147" x1="235.74" y1="85.41" x2="235.74" y2="37.97" gradientUnits="userSpaceOnUse"><stop offset="0" stop-color="#fff100"/><stop offset="0.8" stop-color="#ed6c00"/></linearGradient></defs><g class="cls-1"><g id="レイヤー_2" data-name="レイヤー 2"><g id="objects"><polygon class="cls-2" points="379.77 88.5 348.78 93.94 117.72 93.94 93.31 88.67 93.31 75.9 112.05 67.14 112.56 57.07 198.17 42.54 364.73 42.54 364.73 78.64 379.77 88.5"/><polygon class="cls-2" points="375.77 74.64 368.56 74.64 368.56 68.62 377.15 64.94 377.15 60.94 377.15 54.91 377.15 50.91 373.15 50.91 368.56 50.91 368.56 39.77 368.56 35.77 364.56 35.77 358.53 35.77 354.53 35.77 354.53 39.77 354.53 40.61 349.65 40.61 346.11 40.61 346.11 38.75 346.11 30.99 334.46 40.61 330.72 40.61 330.72 39.77 330.72 35.77 326.72 35.77 304.71 35.77 297.1 35.77 289.73 35.77 287.61 35.77 285.25 38.62 281.25 38.62 268.45 38.62 269.65 34.75 264.23 34.75 257.83 34.75 254.84 34.75 253.99 37.62 253.6 38.96 251.79 38.96 251.79 38.75 251.79 30.99 245.47 35.49 240.6 38.96 235.28 38.96 231.28 38.96 231.28 42.37 219.6 42.37 219.4 39.5 219.15 35.77 215.41 35.77 209.32 35.77 205.04 35.77 205.33 40.04 205.49 42.37 196.72 42.37 195 35.77 190.78 35.77 170.39 35.77 164.24 35.77 150.24 35.77 147.76 35.77 146.66 37.99 146.35 38.62 141.7 38.62 141.7 38.62 138.47 35.71 134.47 35.71 129.01 35.71 125.01 35.71 125.01 38.62 121.71 38.62 116.48 38.62 117.08 40.84 112.58 40.84 111.46 40.84 94.33 30.99 94.33 38.75 94.33 41.86 91.72 41.86 91.72 45.86 91.72 51.32 91.72 55.32 93.82 55.32 93.82 58.49 93.82 62.49 93.82 63.14 93.14 63.14 93.14 67.14 93.14 84.67 93.14 88.67 142.1 88.67 142.23 88.67 142.23 88.72 146.33 88.72 151.8 88.72 155.71 88.72 155.79 84.81 155.99 75.75 157.38 75.75 157.38 84.67 157.38 88.67 161.38 88.67 166.84 88.67 170.84 88.67 170.84 84.67 170.84 80.93 173.25 80.93 173.25 84.67 173.25 88.67 177.25 88.67 182.88 88.67 186.88 88.67 186.88 84.67 186.88 80.93 191.76 80.93 195.76 80.93 195.76 76.93 195.76 71.94 207.74 71.94 208.8 84.99 209.1 88.67 212.78 88.67 218.88 88.67 223.21 88.67 222.86 84.34 221.85 71.94 233.23 71.94 231.82 84.21 231.31 88.67 235.79 88.67 241.72 88.67 245.29 88.67 247.53 88.67 253.45 88.67 257.36 88.67 259.8 88.67 265.89 88.67 269.89 88.67 269.89 84.67 269.89 82.53 271.19 86.05 272.15 88.67 274.94 88.67 281.47 88.67 287.22 88.67 288.31 88.67 294.39 88.67 298.39 88.67 298.39 84.67 298.39 63 299.52 63 308.49 63 308.49 84.67 308.49 88.67 312.49 88.67 318.52 88.67 322.52 88.67 322.52 84.67 322.52 75.18 328.01 75.18 332.08 75.18 332.08 84.67 332.08 88.67 336.08 88.67 342.11 88.67 346.11 88.67 347.26 88.67 375.77 88.67 379.77 88.67 379.77 84.67 379.77 78.64 379.77 74.64 375.77 74.64"/><path class="cls-3" d="M97.14,84.67h14V67.14h-14Zm5.4-12.13h3.19v6.72h-3.19Zm26.47,4V67.65l-2,4h-6.14v3l2,4.47H142.1v5.52H119.91l-2.28-4.85-5.58,5.59V77.66l3.36-3.3V62.53h-3.36V57.07h8.82V71.53l6.69-13.21h-6.24V52.8H129V50.64H123.9l-2.19-8h5.7L129,48.7v-9h5.46v8.65l1.61-5.74h5.62l-2.18,8h-5.05V52.8h7.74v5.52H136l7.11,13.37h-6.17l-2.47-4.6v9.5Zm-18.5-18.1H97.82V52.86h12.69Zm3.86-6.15-1.79-7.51h5.69l1.64,7.51Zm-1.81-1H95.72V45.86h16.84ZM97.82,59.86h12.69v5.57H97.82Zm11.29-15.31H98.33V38Zm55.13-4.78h-14l-6,12.12h3l-.86,32.83h5.47l.28-13h9.3V84.67h5.46V48h-6.25Zm-10,26.52h-1.92l.08-3.7h1.84Zm0-9.11h-1.69l.08-3.76h1.61ZM154.7,48h-2.58l1.4-2.79H156Zm6.68,18.27h-1.71v-3.7h1.71Zm0-12.87v3.76h-1.71V53.42Zm21.5,17.88h8.88v5.63h-8.88v7.74h-5.63V76.93h-8.87V71.3h8.87V66.74h-3.33l-1.08,3.59H167l3.9-12.46h5.87l-1,3.3h1.55v-5h5.63v5h7.17v5.57h-7.17Zm-10.06-26h-5.13V39.77h23.09L189.84,57h-5.63l.63-11.61h-6.28l-2.67,10.82h-5.8Zm44.23,16.45h18v6.15H217.51l1.36,16.73h-6.09l-1.36-16.73H192.65V61.79H211l-.73-9.28H193.5V46.37h16.27l-.45-6.6h6.09l.45,6.6h16.62v6.14H216.37Zm36.63-8.88,4.15-14.16h6.4L263,42.62h18.22v6h-20l-1.31,4.27Zm27.75,8.26-5.75,7.89,5.79,15.61h-6.53L265.89,60.1V84.67H259.8V63.1h-5.86l-.49,21.57h-5.92l.64-25.21h-3.59l-2.86,25.21h-5.93L239.2,55V48.82h-3.92V43h6.6l5.91-4.21V43h6.6v5.86h-9.33v4.72h9.13L254,61.81l.05-.05L266.9,50.14h9l-5.49,5,2.87,7.63,1.12-1.59ZM326.72,45.8H302.08v-6h24.64Zm-39.29,8h-7.25l9.55-14h7.37Zm12.09-1h28.73V59h-9.73V84.67h-6V59h-13Zm-7.78-1.94h7.32l-4.67,6.87V84.67h-6.08v-18l-.6.87H280.4Zm84,27.72v6H347.26v-6h11.27V60.94h-8.65v-6h8.65V39.77h6V54.91h8.59v6h-8.59v17.7Zm-25-14.17h-8.7v20.2h-6V69l-1.16,2.19H328l11.52-20H329.45v-6h6.63l6-5.86v5.86h7.54l-6.1,10.9Z"/><path class="cls-4" d="M42.52,19.29A42.52,42.52,0,1,1,0,61.81,42.52,42.52,0,0,1,42.52,19.29"/><path class="cls-5" d="M42.52,25.83a36,36,0,1,1-36,36,36,36,0,0,1,36-36"/><path class="cls-6" d="M42.52,25.83A36,36,0,0,1,74.36,78.57c.25-.57,3.26-7.56.08-11.83C71.14,62.29,27.09,65,13.46,53a47.83,47.83,0,0,0-4.74-3.57,36,36,0,0,1,33.8-23.63"/><path class="cls-7" d="M36.7,97.31c-6.85-8.49-10.09-17.57-5.13-23.73,7.41-9.21,26.16-3.7,27.13-1.82S61.7,72,60,80c-2.3-5.25-15.91-8.46-10.44,7.15a11.78,11.78,0,0,1-3.48-10.56S41.84,83.81,53.64,96A36.23,36.23,0,0,1,36.7,97.31"/><path class="cls-4" d="M60,80c8.45-4,13.46-9.45,14.67-14,2.91-8.3-6.64-16.11-13.11-19.13l-.64-.3a11.3,11.3,0,0,0-5.52-5.76c-12.51-6.21-35-4.34-48-.7A42.28,42.28,0,0,0,45,101.64c.67,0,1.34,0,2,0C40.18,88.66,35.26,73,46.25,71.87c6.1,0,11,.53,13.76,8.08"/><path class="cls-7" d="M64.16,68.83s-1.92-6-21.76-4.74a30.16,30.16,0,0,1,8.93-2.5,25.5,25.5,0,0,1,9.13,1.35c.24.07,5.19,1.88,3.7,5.89"/><path class="cls-8" d="M63.85,71.72a25.15,25.15,0,0,0,5.22-8.13C71.38,58.15,59,52.36,59,52.36a16.32,16.32,0,0,1-4.41,2.47l3.17,1.68-7.23-.63,5.37,2.18s8.75,2.2,9.34,4.64-1.38,9-1.38,9"/><path class="cls-6" d="M63.85,71.72a25.15,25.15,0,0,0,5.22-8.13C71.38,58.15,59,52.36,59,52.36a10.55,10.55,0,0,1-1,.73,33,33,0,0,1,8.58,5.11,48.82,48.82,0,0,0-5.92-2.52,25.66,25.66,0,0,1,7,6.11,24.29,24.29,0,0,1-3.75,9.93"/><path class="cls-5" d="M50.52,55.88a14.59,14.59,0,0,1-5.27,1.9A11.69,11.69,0,0,0,37.94,62a86.48,86.48,0,0,1,13.39-.37h0l-.24,0s5.44.63,8.62,2.2,5.29,2.68,4.13,7.89a20.31,20.31,0,0,0,2.39-9.47,42.25,42.25,0,0,0-15.72-6.37"/><path class="cls-9" d="M26.48,50a10,10,0,0,1,9-2c5.3,1.47,7.14,3.68,14.25,3.69,3.29,0,5.16-.4,5.54-1.54.43-1.32-.73-3-2.61-3.9-9.26-4.6-27.45-3.55-42.72.21a35.54,35.54,0,0,0-3,9.88A69.58,69.58,0,0,1,19.6,52.51a82.55,82.55,0,0,0-13,9.65,36,36,0,0,0,2.55,13c6.46-6.68,14.29-12.69,23.32-15.85,0,0-9.82,6-19.19,23.39a36.29,36.29,0,0,0,8.36,8.37,45.66,45.66,0,0,1,5.31-16.8c-5.3,4.46-7.25,7.81-7.25,7.81C28,60,40.1,56.17,41.42,55.81a10.32,10.32,0,0,1-6-.53,10.7,10.7,0,0,0,3.09-.88A5.23,5.23,0,0,1,36,50.84c-2.63-1-6.83-2.15-9.47-.86"/><path class="cls-10" d="M7,56.33A69.58,69.58,0,0,1,19.6,52.51,69.17,69.17,0,0,0,7.38,54.07c-.17.74-.31,1.5-.42,2.26"/><path class="cls-10" d="M32.13,96.26a53.19,53.19,0,0,1-.23-5.85,48.85,48.85,0,0,0-2.53,4.89c.9.36,1.83.68,2.76,1m-23-21.1c6.46-6.68,14.29-12.69,23.32-15.85,0,0-9.82,6-19.19,23.39a36.11,36.11,0,0,0,11.7,10.49,35.84,35.84,0,0,1,2.45-15c5-11.62,13.48-12,13.48-12a22.22,22.22,0,0,0-13.11,3.32s5.89-10.3,13.5-13.61c-.75.32-3.06,1.08-8.24,1.2-6.58.16-16.64,1.1-25,8.3,0,0,4-2.09,12.48-3.21,0,0-6,.72-12.87,8.5A37.3,37.3,0,0,0,9.1,75.16Z"/><path class="cls-11" d="M26.09,93.82A33.22,33.22,0,0,1,28.77,78.3c5-11.62,17-12.5,17-12.5-10.09-1.3-16.18,2.37-16.18,2.37,2.69-5.43,11.79-12.36,11.79-12.36C26.45,62,19.65,82.08,19.65,82.08c4.11-7.52,8.4-9.54,8.4-9.54-6.38,7.06-6.46,18.53-6.46,18.53a36.81,36.81,0,0,0,4.5,2.75m6-14.56c-4.93,5.13-4.08,15.49-4.08,15.49a35.54,35.54,0,0,0,7.62,2.38C31,85.57,32.13,79.26,32.13,79.26Z"/><path class="cls-12" d="M61.61,46.86c-6.73-1.11-13.94-4.72-20.26-9.73a97.75,97.75,0,0,0-26.18,1.21l-3.06,4.48s17.06,15.67,40,11.6C49.54,52,64.17,48.06,61.61,46.86Z"/><path class="cls-6" d="M49.34,51.71c-1.58,2.89-5.73,2.23-5.73,2.23-4.54-.64-4.46-4-4.46-4Z"/><path class="cls-4" d="M54.16,1.82c18,4.08,23.19,11.6,23.19,11.6C65.38,22,60.93,46.54,60.93,46.54a64,64,0,0,1-30.06-6.83C35.56,15.9,32.28,1,32.28,1S38.5-1.72,54.16,1.82Z"/><path class="cls-11" d="M70.48,15.38a18.3,18.3,0,0,1,2-2.25A24.47,24.47,0,0,0,66.24,9.6c-.48,1-1,2.11-1.45,3.27C66.3,13.46,68.55,14.38,70.48,15.38Z"/><path class="cls-11" d="M63.66,15.66C58.82,28,54.11,45.23,54.11,45.23l3.44.68c3.56-14.68,8-23.36,11.16-28.07C67,17,65,16.18,63.66,15.66Z"/><path class="cls-4" d="M76.88,44.06l1.94,3.74C40.3,61.54,15.17,38.34,15.17,38.34s4-9.64,20.5-15.45C35.67,22.89,50.52,55.88,76.88,44.06Z"/></g></g></g></svg>