<svg xmlns="http://www.w3.org/2000/svg" viewBox="0 0 85.04 104.33"><defs><style>.cls-1{isolation:isolate;}.cls-2{fill:#231815;}.cls-10,.cls-2,.cls-3,.cls-4,.cls-5,.cls-6,.cls-7,.cls-8,.cls-9{fill-rule:evenodd;}.cls-3{fill:gray;}.cls-4{fill:#ccc;}.cls-5{fill:#4d4d4d;}.cls-6{fill:#989898;}.cls-7{fill:#fff;}.cls-10,.cls-8{fill:#b5b5b6;}.cls-9{fill:#727171;}.cls-10{mix-blend-mode:multiply;}</style></defs><g class="cls-1"><g id="レイヤー_2" data-name="レイヤー 2"><g id="objects"><path class="cls-2" d="M42.52,19.29A42.52,42.52,0,1,1,0,61.81,42.52,42.52,0,0,1,42.52,19.29"/><path class="cls-3" d="M42.52,25.83a36,36,0,1,1-36,36,36,36,0,0,1,36-36"/><path class="cls-4" d="M42.52,25.83A36,36,0,0,1,74.36,78.57c.25-.57,3.26-7.56.08-11.83C71.14,62.29,27.09,65,13.46,53a47.83,47.83,0,0,0-4.74-3.57,36,36,0,0,1,33.8-23.63"/><path class="cls-5" d="M36.7,97.31c-6.85-8.49-10.09-17.57-5.13-23.73,7.41-9.21,26.16-3.7,27.13-1.82S61.7,72,60,80c-2.3-5.25-15.91-8.46-10.44,7.15a11.78,11.78,0,0,1-3.48-10.56S41.84,83.81,53.64,96A36.23,36.23,0,0,1,36.7,97.31"/><path class="cls-2" d="M60,80c8.45-4,13.46-9.45,14.67-14,2.91-8.3-6.64-16.11-13.11-19.13l-.64-.3a11.3,11.3,0,0,0-5.52-5.76c-12.51-6.21-35-4.34-48-.7A42.28,42.28,0,0,0,45,101.64c.67,0,1.34,0,2,0C40.18,88.66,35.26,73,46.25,71.87c6.1,0,11,.53,13.76,8.08"/><path class="cls-5" d="M64.16,68.83s-1.92-6-21.76-4.74a30.16,30.16,0,0,1,8.93-2.5,25.5,25.5,0,0,1,9.13,1.35c.24.07,5.19,1.88,3.7,5.89"/><path class="cls-6" d="M63.85,71.72a25.15,25.15,0,0,0,5.22-8.13C71.38,58.15,59,52.36,59,52.36a16.32,16.32,0,0,1-4.41,2.47l3.17,1.68-7.23-.63,5.37,2.18s8.75,2.2,9.34,4.64-1.38,9-1.38,9"/><path class="cls-4" d="M63.85,71.72a25.15,25.15,0,0,0,5.22-8.13C71.38,58.15,59,52.36,59,52.36a10.55,10.55,0,0,1-1,.73,33,33,0,0,1,8.58,5.11,48.82,48.82,0,0,0-5.92-2.52,25.66,25.66,0,0,1,7,6.11,24.29,24.29,0,0,1-3.75,9.93"/><path class="cls-3" d="M50.52,55.88a14.59,14.59,0,0,1-5.27,1.9A11.69,11.69,0,0,0,37.94,62a86.48,86.48,0,0,1,13.39-.37h0l-.24,0s5.44.63,8.62,2.2,5.29,2.68,4.13,7.89a20.31,20.31,0,0,0,2.39-9.47,42.25,42.25,0,0,0-15.72-6.37"/><path class="cls-7" d="M26.48,50a10,10,0,0,1,9-2c5.3,1.47,7.14,3.68,14.25,3.69,3.29,0,5.16-.4,5.54-1.54.43-1.32-.73-3-2.61-3.9-9.26-4.6-27.45-3.55-42.72.21a35.54,35.54,0,0,0-3,9.88A69.58,69.58,0,0,1,19.6,52.51a82.55,82.55,0,0,0-13,9.65,36,36,0,0,0,2.55,13c6.46-6.68,14.29-12.69,23.32-15.85,0,0-9.82,6-19.19,23.39a36.1,36.1,0,0,0,8.36,8.37,45.66,45.66,0,0,1,5.31-16.8c-5.3,4.46-7.25,7.81-7.25,7.81C28,60,40.1,56.17,41.42,55.81a10.32,10.32,0,0,1-6-.53,10.7,10.7,0,0,0,3.09-.88A5.23,5.23,0,0,1,36,50.84c-2.63-1-6.83-2.15-9.47-.86"/><path class="cls-8" d="M7,56.33A69.58,69.58,0,0,1,19.6,52.51,69.17,69.17,0,0,0,7.38,54.07c-.17.74-.31,1.5-.42,2.26"/><path class="cls-8" d="M32.13,96.26a53.19,53.19,0,0,1-.23-5.85,48.85,48.85,0,0,0-2.53,4.89c.9.36,1.83.68,2.76,1m-23-21.1c6.46-6.68,14.29-12.69,23.32-15.85,0,0-9.82,6-19.19,23.39a36.11,36.11,0,0,0,11.7,10.49,35.84,35.84,0,0,1,2.45-15c5-11.62,13.48-12,13.48-12a22.22,22.22,0,0,0-13.11,3.32s5.89-10.3,13.5-13.61c-.75.32-3.06,1.08-8.24,1.2-6.58.16-16.64,1.1-25,8.3,0,0,4-2.09,12.48-3.21,0,0-6,.72-12.87,8.5A37.3,37.3,0,0,0,9.1,75.16Z"/><path class="cls-9" d="M26.09,93.82A33.22,33.22,0,0,1,28.77,78.3c5-11.62,17-12.5,17-12.5-10.09-1.3-16.18,2.37-16.18,2.37,2.69-5.43,11.79-12.36,11.79-12.36C26.45,62,19.65,82.08,19.65,82.08c4.11-7.52,8.4-9.54,8.4-9.54-6.38,7.06-6.46,18.53-6.46,18.53a36.81,36.81,0,0,0,4.5,2.75m6-14.56c-4.93,5.13-4.08,15.49-4.08,15.49a35.54,35.54,0,0,0,7.62,2.38C31,85.57,32.13,79.26,32.13,79.26Z"/><path class="cls-10" d="M61.61,46.86c-6.73-1.11-13.94-4.72-20.26-9.73a97.75,97.75,0,0,0-26.18,1.21l-3.06,4.48s17.06,15.67,40,11.6C49.54,52,64.17,48.06,61.61,46.86Z"/><path class="cls-7" d="M49.34,51.71c-1.58,2.89-5.73,2.23-5.73,2.23-4.54-.64-4.46-4-4.46-4Z"/><path class="cls-2" d="M54.16,1.82c18,4.08,23.19,11.6,23.19,11.6C65.38,22,60.93,46.54,60.93,46.54a64,64,0,0,1-30.06-6.83C35.56,15.9,32.28,1,32.28,1S38.5-1.72,54.16,1.82Z"/><path class="cls-9" d="M70.48,15.38a18.3,18.3,0,0,1,2-2.25A24.47,24.47,0,0,0,66.24,9.6c-.48,1-1,2.11-1.45,3.27C66.3,13.46,68.55,14.38,70.48,15.38Z"/><path class="cls-9" d="M63.66,15.66C58.82,28,54.11,45.23,54.11,45.23l3.44.68c3.56-14.68,8-23.36,11.16-28.07C67,17,65,16.18,63.66,15.66Z"/><path class="cls-2" d="M76.88,44.06l1.94,3.74C40.3,61.54,15.17,38.34,15.17,38.34s4-9.64,20.5-15.45C35.67,22.89,50.52,55.88,76.88,44.06Z"/></g></g></g></svg>