<svg xmlns="http://www.w3.org/2000/svg" viewBox="0 0 88.56 88.56"><defs><style>.cls-1{fill:#9a8164;}.cls-2{fill:#fff;}</style></defs><g id="レイヤー_2" data-name="レイヤー 2"><g id="レイヤー_1-2" data-name="レイヤー 1"><circle class="cls-1" cx="44.28" cy="44.28" r="44.28"/><path class="cls-2" d="M36.15,66.27c18.57,0,28.72-15.38,28.72-28.72,0-.43,0-.87,0-1.3a20.5,20.5,0,0,0,5-5.23,19.71,19.71,0,0,1-5.79,1.59A10.19,10.19,0,0,0,68.52,27a20.3,20.3,0,0,1-6.41,2.45,10.1,10.1,0,0,0-17.46,6.9,10.26,10.26,0,0,0,.26,2.3,28.64,28.64,0,0,1-20.8-10.54,10.09,10.09,0,0,0,3.12,13.47,10,10,0,0,1-4.57-1.26v.13a10.09,10.09,0,0,0,8.09,9.89,10.11,10.11,0,0,1-2.66.36,9.77,9.77,0,0,1-1.89-.19,10.1,10.1,0,0,0,9.43,7,20.26,20.26,0,0,1-12.54,4.32,19.25,19.25,0,0,1-2.41-.14,28.52,28.52,0,0,0,15.47,4.54"/></g></g></svg>